<?xml version="1.0" encoding="UTF-8"?>
<svg version="1.1" viewBox="0 0 400 400" xmlns="http://www.w3.org/2000/svg">
<g fill-rule="evenodd">
<path d="m250.95 105.79c-0.541 1.411 0.121 23.117 0.763 25.01 0.336 0.99 0.819 3.044 1.073 4.565s0.722 3.136 1.039 3.589 0.577 1.171 0.577 1.595c0 1.138 3.932 9.48 4.7 9.971 0.275 0.176 0.5 0.597 0.5 0.937 0 0.339 0.37 1.095 0.823 1.68 0.452 0.585 1.307 1.812 1.9 2.728 1.387 2.143 4.444 5.621 7.453 8.479 1.307 1.241 2.756 2.616 3.22 3.056 0.926 0.878 1.486 1.291 5.556 4.1 3.131 2.161 3.282 2.253 4.648 2.854 0.55 0.242 1.27 0.619 1.6 0.838 1.006 0.666 5.115 2.408 5.68 2.408 0.293 0 1.212 0.365 2.043 0.81 0.831 0.446 2.359 0.921 3.394 1.056 1.036 0.136 2.362 0.487 2.947 0.782 1.595 0.803 7.379 1.345 14.387 1.349l6.252 3e-3 0.46 1.111c0.337 0.813 0.43 9.672 0.349 33.1l-0.112 31.989-0.9 1.585c-0.495 0.871-0.9 1.898-0.9 2.282s-0.45 1.361-1 2.171c-0.55 0.811-1 1.699-1 1.975s-0.27 0.605-0.6 0.732c-0.33 0.126-0.6 0.474-0.6 0.772 0 0.847-4.132 4.868-6.689 6.508-1.271 0.816-2.761 1.788-3.311 2.162s-1.618 0.802-2.374 0.951c-0.755 0.149-1.719 0.584-2.142 0.967-1.293 1.17-14.682 0.993-16.869-0.223-0.871-0.485-1.84-0.882-2.152-0.882-0.563 0-1.962-0.755-5.063-2.732-3.264-2.081-6.768-5.899-8.507-9.268-0.283-0.55-0.778-1.45-1.098-2-0.321-0.55-0.586-1.381-0.589-1.846s-0.353-1.287-0.777-1.826c-0.738-0.939-0.777-2.039-0.932-26.354-0.137-21.483-0.256-25.65-0.777-27.174-0.338-0.99-0.744-3.42-0.901-5.4-0.158-1.98-0.527-3.976-0.82-4.436-0.294-0.46-0.758-1.99-1.032-3.4-0.273-1.41-0.717-2.924-0.985-3.364s-0.6-1.287-0.738-1.883-1.059-2.802-2.047-4.903c-0.989-2.1-1.797-3.998-1.797-4.216 0-0.219-0.144-0.398-0.32-0.398s-0.716-0.765-1.198-1.7c-3.54-6.856-13.327-16.366-20.082-19.512-9.017-4.2-10.138-4.367-29.4-4.366-15.642 1e-3 -26.924 0.508-29.876 1.342-1.168 0.331-3.807 0.782-5.864 1.003s-3.961 0.585-4.231 0.809-1.789 0.591-3.375 0.816-3.282 0.658-3.769 0.961c-0.487 0.304-1.672 0.67-2.635 0.812-0.962 0.143-2.527 0.615-3.478 1.048-0.95 0.433-2.122 0.787-2.603 0.787s-1.436 0.341-2.122 0.757-1.874 0.89-2.641 1.052c-0.767 0.163-1.757 0.527-2.2 0.809s-1.571 0.737-2.506 1.011-1.7 0.626-1.7 0.782c0 0.157-0.807 0.511-1.792 0.787-0.986 0.276-1.989 0.738-2.228 1.026-0.239 0.289-1.008 0.65-1.708 0.802-0.699 0.153-1.701 0.615-2.226 1.026s-1.265 0.748-1.646 0.748-1.121 0.335-1.646 0.745-1.378 0.878-1.895 1.04c-0.518 0.162-1.578 0.727-2.356 1.255s-1.64 0.96-1.916 0.96-0.605 0.27-0.732 0.6c-0.126 0.33-0.444 0.6-0.705 0.6s-1.031 0.418-1.712 0.929c-0.681 0.512-1.508 1.03-1.838 1.152-0.558 0.206-5.706 3.509-6.6 4.234-0.22 0.179-0.985 0.67-1.7 1.091-0.715 0.422-1.3 0.896-1.3 1.053 0 0.158-0.366 0.403-0.813 0.545s-1.24 0.649-1.762 1.127-1.191 1.053-1.487 1.278c-3.46 2.634-5.138 4.033-5.138 4.286 0 0.168-0.225 0.307-0.5 0.31s-1.288 0.737-2.251 1.631-2.588 2.288-3.612 3.097c-2.696 2.131-3.21 2.565-4.221 3.567-0.499 0.495-1.103 0.9-1.342 0.9s-0.578 0.249-0.754 0.553c-0.439 0.759-5.145 4.647-5.625 4.647-0.213 0-0.841 0.357-1.395 0.793s-2.244 1.435-3.754 2.22c-3.123 1.624-3.915 2.071-5.406 3.053-0.583 0.384-1.515 0.813-2.07 0.952-0.556 0.14-1.322 0.598-1.703 1.018-0.38 0.42-0.869 0.764-1.088 0.764-0.528 0-4.402 2.585-5.058 3.375-0.286 0.344-0.674 0.625-0.863 0.625-0.589 0-5.532 5.213-6.977 7.36-0.43 0.637-1.097 1.627-1.484 2.2-0.386 0.572-1.077 1.76-1.534 2.64-0.458 0.88-1.168 2.23-1.578 3-0.411 0.77-0.755 1.693-0.766 2.051-0.01 0.358-0.284 0.871-0.608 1.14-0.325 0.269-0.705 1.146-0.845 1.949-0.141 0.803-0.529 1.894-0.863 2.425-0.333 0.53-0.766 2.389-0.961 4.131-0.194 1.742-0.621 3.684-0.948 4.315-0.881 1.705-0.88 25.403 2e-3 26.662 0.328 0.468 0.793 1.768 1.033 2.889 0.241 1.121 0.59 2.038 0.777 2.038s0.464 0.405 0.616 0.9c0.361 1.179 6.054 6.699 6.913 6.703 0.366 1e-3 1.205 0.36 1.865 0.797 1.113 0.737 17 1.32 17 0.624 0-0.097-0.548-1.222-1.219-2.5-0.67-1.278-1.39-3.206-1.601-4.284-0.591-3.033-0.606-3.04-6.371-3.04-5.728 0-6.021-0.13-8.475-3.749l-1.119-1.651 0.01-12.8c8e-3 -10.552 0.118-13.081 0.626-14.4 0.34-0.88 0.81-2.5 1.047-3.6 0.236-1.1 0.761-2.429 1.166-2.954s0.736-1.355 0.736-1.846 0.349-1.336 0.775-1.878c0.427-0.542 0.893-1.453 1.036-2.024 0.144-0.572 0.605-1.35 1.025-1.731 0.42-0.38 0.764-0.928 0.764-1.217 0-0.752 6.824-7.603 7.9-7.93 0.495-0.151 0.9-0.439 0.9-0.642 0-0.202 0.585-0.633 1.3-0.959 0.715-0.325 2.02-1.046 2.9-1.601 2.03-1.28 4.425-2.609 6.432-3.567 0.862-0.412 1.881-0.907 2.263-1.1 0.385-0.194 18.838-0.352 41.4-0.354 42.036-4e-3 46.499-0.149 49.211-1.603 0.815-0.437 1.845-0.798 2.288-0.803s1.256-0.361 1.806-0.791 1.2-0.786 1.445-0.791 1.082-0.504 1.86-1.109 1.914-1.46 2.524-1.9c1.501-1.083 5.031-4.525 5.771-5.626 0.33-0.492 1.261-1.857 2.07-3.034 0.808-1.177 1.592-2.635 1.743-3.24 0.15-0.605 0.411-1.1 0.578-1.1 0.168 0 0.516-0.855 0.774-1.9s0.741-2.71 1.073-3.7 0.709-3.53 0.84-5.644l0.236-3.843-1.371-1.496c-3.806-4.154-9.143-1.184-9.143 5.089 0 1.999-0.265 3.347-1 5.094-0.55 1.307-1 2.552-1 2.768 0 1.11-6.895 9.232-7.837 9.232-0.136 0-0.782 0.45-1.436 1s-1.439 1-1.745 1c-0.307 0-1.238 0.349-2.07 0.775-2.857 1.465-6.711 1.625-39.112 1.625-38.174 0-35.673 0.563-27.3-6.143 2.915-2.334 5.666-4.607 6.114-5.051 0.448-0.443 1.024-0.806 1.28-0.806 0.257 0 0.61-0.243 0.786-0.54 0.276-0.466 4.065-3.258 6.052-4.46 0.364-0.22 1.172-0.805 1.796-1.3 0.623-0.495 1.291-0.9 1.483-0.9 0.441 0 3.889-2.314 4.202-2.821 0.129-0.209 0.513-0.379 0.853-0.379s1.153-0.45 1.807-1 1.432-1 1.729-1c0.298 0 0.779-0.234 1.069-0.521 0.291-0.286 1.969-1.223 3.729-2.082 1.76-0.858 3.29-1.668 3.4-1.8 0.11-0.131 1.053-0.558 2.096-0.949s1.998-0.877 2.123-1.08c0.126-0.202 0.534-0.368 0.908-0.368s1.525-0.45 2.558-1 2.202-1.001 2.597-1.003c0.395-1e-3 1.255-0.356 1.912-0.789 0.656-0.433 1.956-0.901 2.887-1.041s1.894-0.496 2.139-0.791 1.286-0.661 2.313-0.813c1.027-0.153 2.494-0.611 3.261-1.02s1.937-0.747 2.6-0.752 1.944-0.344 2.847-0.754c0.902-0.409 2.792-0.875 4.2-1.035 1.407-0.16 3.187-0.549 3.954-0.865s3.287-0.752 5.6-0.969c2.313-0.216 6.239-0.657 8.725-0.981 5.5-0.714 32.514-0.825 35.08-0.143 0.88 0.234 2.651 0.666 3.935 0.96s2.634 0.798 3 1.118c0.366 0.321 1.115 0.718 1.665 0.883s1.478 0.636 2.062 1.047c0.584 0.412 1.199 0.748 1.366 0.748 0.168 0 0.59 0.27 0.938 0.601 0.349 0.33 1.624 1.387 2.834 2.347 1.21 0.961 3.142 2.805 4.294 4.099 2.804 3.15 2.929 3.308 4.269 5.366 0.639 0.983 1.486 2.264 1.882 2.847s0.835 1.52 0.977 2.083c0.141 0.564 0.508 1.233 0.814 1.487 0.307 0.255 0.754 1.189 0.993 2.077 0.239 0.887 0.674 1.853 0.966 2.145 0.293 0.293 0.656 1.301 0.807 2.24s0.508 2.077 0.793 2.528 0.723 2.137 0.973 3.747c0.249 1.609 0.674 3.31 0.943 3.78 0.366 0.639 0.539 7.617 0.689 27.853 0.182 24.617 0.261 27.112 0.892 28.266 0.381 0.696 0.813 2.284 0.959 3.53 0.146 1.245 0.496 2.493 0.776 2.774 0.28 0.28 0.705 1.236 0.944 2.123 0.239 0.888 0.703 1.837 1.032 2.109 0.328 0.273 0.597 0.68 0.597 0.906 0 0.538 2.575 4.407 3.375 5.071 0.344 0.286 0.625 0.696 0.625 0.913 0 0.485 3.869 4.146 5.822 5.508 0.788 0.55 1.942 1.405 2.563 1.9 0.622 0.495 1.295 0.9 1.495 0.9 0.201 0 0.975 0.45 1.72 1s1.642 1 1.993 1 1.344 0.36 2.207 0.8 1.958 0.8 2.432 0.8c0.475 0 1.991 0.36 3.368 0.8 3.123 0.998 11.916 1.152 13.665 0.24 0.585-0.306 2.33-0.769 3.877-1.03 1.548-0.261 3.026-0.73 3.285-1.042 0.259-0.313 0.857-0.568 1.329-0.568s1.521-0.45 2.33-1 1.626-1 1.815-1c0.503 0 4.121-2.679 6.348-4.7 0.546-0.495 1.163-0.9 1.372-0.9 0.208 0 0.379-0.204 0.379-0.454s0.405-0.863 0.9-1.362c1.83-1.847 3.1-3.5 3.1-4.034 0-0.303 0.186-0.55 0.414-0.55s0.753-0.79 1.167-1.756 0.934-1.868 1.155-2.005c0.221-0.136 0.524-0.831 0.672-1.544 0.149-0.712 0.502-1.661 0.784-2.109 0.283-0.448 0.792-2.158 1.132-3.8s0.811-3.493 1.047-4.112c0.295-0.774 0.429-13.718 0.429-41.424 0-45.504-0.349-41.428 3.6-42.034 4.911-0.753 6.529-1.287 11.6-3.825 2.291-1.147 2.841-1.577 5.933-4.641 2.434-2.412 3.562-3.789 3.852-4.703 0.13-0.408 0.591-1.063 1.025-1.456 0.435-0.393 0.79-0.948 0.79-1.232s0.45-1.363 1-2.397c0.55-1.035 1-2.313 1-2.841 0-0.529 0.303-1.537 0.673-2.241 0.726-1.38 1.292-11.971 0.754-14.113l-0.27-1.077-7.74 0.195c-6.919 0.173-7.915 0.285-9.391 1.054-0.908 0.474-1.903 0.861-2.212 0.861-0.718 0-1.996 0.568-4.014 1.782-0.88 0.53-2.14 1.272-2.8 1.649-1.556 0.89-5.428 4.808-6.727 6.807-0.558 0.859-1.475 2.102-2.037 2.762l-1.022 1.2-0.804-1c-0.442-0.55-1.197-1.796-1.676-2.769-0.48-0.973-1.201-2.098-1.603-2.5s-0.731-0.941-0.731-1.197c0-0.257-0.265-0.752-0.59-1.1-0.324-0.349-1.924-2.254-3.554-4.234-3.195-3.88-5.1-5.754-8.856-8.715-1.32-1.04-2.596-2.05-2.836-2.244-1.02-0.826-7.998-4.841-8.412-4.841-0.25 0-0.674-0.265-0.943-0.589-0.269-0.325-1.096-0.704-1.837-0.843s-1.712-0.569-2.158-0.956c-0.446-0.386-1.623-0.814-2.615-0.95-0.993-0.136-2.285-0.562-2.871-0.946-0.65-0.426-2.294-0.804-4.21-0.969-1.729-0.148-3.435-0.512-3.792-0.808-1.093-0.908-25.632-1.048-25.978-0.149m23.852 9.252c2.75 0.355 5.843 0.986 6.874 1.402s2.204 0.756 2.606 0.756c0.403 0 1.359 0.336 2.126 0.747 0.767 0.41 1.991 0.877 2.721 1.037s1.42 0.533 1.533 0.829c0.114 0.296 0.777 0.662 1.473 0.814 0.697 0.152 1.776 0.703 2.398 1.225 0.622 0.521 1.372 0.948 1.666 0.948 0.295 0 0.596 0.138 0.67 0.307 0.073 0.169 1.123 1.008 2.333 1.865 7.076 5.012 15.756 16.238 17.806 23.028 0.166 0.55 0.548 1.355 0.848 1.789s0.546 1.287 0.546 1.896c0 0.608 0.368 2.053 0.817 3.211 1.049 2.701 1.494 8.61 0.722 9.583-0.588 0.74-0.876 0.485-16.019-14.192-5.376-5.211-8.587-8.214-10.825-10.124-2.569-2.192-6-1.055-6.739 2.234-0.386 1.717 0.143 4.803 0.823 4.803 0.191 0 2.77 2.385 5.73 5.3 2.961 2.915 7.694 7.46 10.518 10.1 6.418 6 8.973 8.577 8.973 9.05 0 1.23-6.932 1.32-9.794 0.128-0.664-0.276-2.106-0.629-3.206-0.783-1.1-0.155-2.36-0.504-2.8-0.775s-1.34-0.624-2-0.783c-1.517-0.366-8.807-3.977-10.4-5.152-7.298-5.382-11.553-9.538-14.894-14.544-0.272-0.408-1.034-1.551-1.693-2.541s-1.202-2.001-1.206-2.246-0.34-0.875-0.746-1.4-0.87-1.494-1.031-2.154-0.548-1.484-0.86-1.83c-0.313-0.347-0.725-1.47-0.917-2.496-0.191-1.026-0.539-2.096-0.772-2.376-0.233-0.281-0.705-2.128-1.05-4.105-0.344-1.976-0.806-4.222-1.028-4.99-0.836-2.899-0.515-9.879 0.486-10.58 1.202-0.842 7.717-0.834 14.311 0.019m76.845 18.399c0.884 0.8 0.628 3.989-0.502 6.243-0.408 0.816-0.743 1.719-0.743 2.005 0 5.138-15.557 15.279-19.554 12.748-0.9-0.57-0.414-6.347 0.684-8.124 0.479-0.774 0.87-1.628 0.87-1.898 0-0.669 3.415-5.111 4.874-6.338 1.857-1.563 4.476-3.262 5.04-3.27 0.283-4e-3 0.994-0.322 1.58-0.707 0.626-0.411 2.229-0.797 3.886-0.935 1.551-0.13 2.896-0.265 2.989-0.3 0.092-0.036 0.487 0.223 0.876 0.576m-221.86 137.04c-0.271 1.607-0.899 3.147-2.608 6.397-0.428 0.814-0.778 1.579-0.778 1.7 0 0.122 12.33 0.221 27.4 0.221 15.153 0 27.4-0.155 27.4-0.346 0-0.19-0.327-0.775-0.726-1.3-1.025-1.348-2.398-4.739-2.711-6.695l-0.265-1.659h-23.714-23.714l-0.284 1.682" fill="#9cd41e"/>
<path d="m0 200v200h200 200v-200-200h-200-200v200m279.8-94.699c0.88 0.372 2.743 0.854 4.14 1.072 1.397 0.217 2.747 0.561 3 0.763s1.495 0.664 2.76 1.027 2.3 0.834 2.3 1.048 0.296 0.389 0.658 0.389c1.532 0 11.022 5.353 11.862 6.69 0.176 0.281 0.511 0.51 0.745 0.51 1.401 0 13.535 12.128 13.535 13.528 0 0.256 0.36 0.69 0.8 0.965s0.8 0.698 0.8 0.941 0.45 0.965 1 1.604c0.549 0.639 0.999 1.483 1 1.875 0 0.391 0.27 0.816 0.6 0.942 0.33 0.127 0.6 0.459 0.6 0.739 0 1.209 1.164 1.523 1.654 0.447 0.261-0.573 0.63-1.041 0.82-1.041s0.519-0.455 0.73-1.01c0.211-0.556 0.657-1.115 0.99-1.243s0.606-0.402 0.606-0.61c0-1.508 9.44-8.337 11.525-8.337 0.337 0 0.896-0.246 1.244-0.547 0.981-0.851 10.287-2.253 14.953-2.253h4.152l0.722 1.341c1.11 2.06 0.708 14.903-0.543 17.354-0.469 0.92-0.853 2.106-0.853 2.635s-0.327 1.391-0.727 1.916-0.962 1.539-1.249 2.254c-0.286 0.715-0.657 1.3-0.824 1.3s-0.515 0.512-0.774 1.138c-0.734 1.772-7.144 8.062-8.216 8.062-0.23 0-0.628 0.338-0.886 0.75-0.258 0.413-1.111 0.871-1.896 1.018-0.786 0.148-1.428 0.433-1.428 0.634s-0.765 0.568-1.7 0.816c-0.935 0.247-2.245 0.711-2.911 1.03-0.665 0.32-2.505 0.72-4.089 0.889-1.583 0.169-3.018 0.448-3.189 0.619s-0.401 19.248-0.511 42.395c-0.18 37.945-0.264 42.182-0.849 43.076-0.358 0.545-0.782 1.797-0.943 2.782s-0.612 2.421-1.002 3.191c-0.389 0.77-0.922 1.85-1.184 2.4-2.104 4.424-4.462 7.356-10.445 12.991-1.037 0.977-4.147 2.994-4.628 3.002-0.248 4e-3 -0.667 0.268-0.932 0.587-0.265 0.318-1.142 0.791-1.949 1.05s-1.738 0.693-2.068 0.964-1.5 0.683-2.6 0.915c-1.1 0.233-2.72 0.7-3.6 1.04-4.632 1.784-17.402 0.618-23.6-2.155-4.775-2.136-4.833-2.171-9.204-5.523-0.953-0.731-1.831-1.586-1.952-1.9-0.12-0.314-0.482-0.571-0.804-0.571-0.323 0-0.7-0.36-0.84-0.8s-0.4-0.8-0.578-0.8c-0.179 0-1.112-1.035-2.073-2.3-0.962-1.265-1.974-2.538-2.249-2.829-0.275-0.29-0.5-0.758-0.5-1.038 0-0.281-0.36-0.926-0.8-1.433s-0.8-1.121-0.8-1.364-0.45-1.288-1-2.321-1-2.24-1-2.682-0.401-1.755-0.891-2.918c-0.881-2.094-0.893-2.381-1.119-28.315-0.15-17.225-0.377-26.623-0.662-27.434-0.239-0.678-0.567-2.388-0.729-3.8-0.163-1.411-0.634-3.428-1.047-4.481-0.414-1.053-0.758-2.313-0.765-2.8-6e-3 -0.487-0.455-1.785-0.996-2.885s-0.985-2.293-0.987-2.651-0.244-0.851-0.538-1.094c-0.294-0.244-0.773-1.169-1.066-2.055s-0.772-1.811-1.066-2.055c-0.294-0.243-0.534-0.62-0.534-0.836 0-0.217-0.45-0.928-1-1.582s-1-1.438-1-1.744c0-0.305-0.36-0.748-0.8-0.983s-0.8-0.638-0.8-0.894c0-0.655-7.885-8.306-8.56-8.306-0.305 0-0.651-0.252-0.769-0.56s-0.858-0.772-1.643-1.031-1.428-0.63-1.428-0.824-0.765-0.571-1.7-0.838-1.97-0.701-2.3-0.965c-2.218-1.775-47.304-1.904-49.445-0.142-0.245 0.202-2.367 0.619-4.716 0.928-2.349 0.308-4.489 0.741-4.755 0.962s-1.768 0.579-3.338 0.796c-1.57 0.218-3.28 0.669-3.8 1.004-0.52 0.334-1.834 0.737-2.919 0.895-1.084 0.158-2.524 0.605-3.2 0.993-0.675 0.388-1.982 0.827-2.904 0.975s-1.885 0.521-2.14 0.828-1.12 0.675-1.923 0.819-1.73 0.487-2.06 0.763-1.05 0.635-1.6 0.797c-1.422 0.42-4.835 1.962-8.908 4.024-1.929 0.977-3.774 1.776-4.1 1.776-0.325 0-0.592 0.178-0.592 0.395s-0.636 0.66-1.414 0.985-1.691 0.867-2.029 1.205-0.845 0.615-1.127 0.615-0.999 0.45-1.592 1c-0.594 0.55-1.387 1-1.762 1-0.376 0-0.908 0.36-1.183 0.8s-0.74 0.8-1.034 0.8-1.058 0.45-1.697 1c-0.639 0.549-1.327 0.999-1.528 1-0.202 0-0.652 0.272-1 0.605-0.349 0.333-1.624 1.262-2.834 2.064-1.21 0.801-2.344 1.699-2.52 1.994s-0.521 0.537-0.766 0.537c-0.246 0-0.732 0.27-1.08 0.599-0.349 0.33-1.894 1.587-3.434 2.793-1.54 1.207-3.166 2.557-3.614 3.001s-0.924 0.807-1.058 0.807c-0.483 0-2.694 2.301-2.447 2.547 0.396 0.397 64.128 0.261 65.919-0.14 2.528-0.567 5.506-1.743 6.87-2.715 0.689-0.49 1.411-0.892 1.603-0.892s0.635-0.315 0.985-0.7 1.286-1.24 2.08-1.9c0.795-0.66 1.449-1.354 1.453-1.542 5e-3 -0.188 0.459-0.877 1.009-1.531s1-1.423 1-1.709 0.254-0.731 0.565-0.989 0.789-1.405 1.063-2.549 0.74-2.659 1.035-3.367 0.537-2.385 0.537-3.726c0-5.761 5.909-8.586 10.066-4.813l1.734 1.574-0.055 5.754c-0.047 4.88-0.176 5.992-0.851 7.326-0.438 0.865-0.932 2.202-1.097 2.972-0.166 0.77-0.638 1.829-1.049 2.354s-0.748 1.122-0.748 1.327-0.45 0.962-1 1.683c-0.55 0.722-1 1.456-1 1.632s-0.367 0.699-0.815 1.162c-3.437 3.553-5.259 5.342-6.056 5.946-0.511 0.386-1.489 1.146-2.173 1.688-0.685 0.542-1.675 1.17-2.2 1.396-0.526 0.225-1.226 0.58-1.556 0.787-1.678 1.053-5.234 2.351-7.077 2.584-1.142 0.144-2.711 0.528-3.487 0.852-1.212 0.506-7.295 0.589-43.197 0.589-26.93 0-42.116 0.142-42.713 0.399-0.509 0.22-1.826 0.935-2.926 1.59-1.1 0.654-2.63 1.484-3.4 1.845s-1.49 0.795-1.6 0.966-0.875 0.591-1.7 0.935c-0.825 0.343-1.5 0.813-1.5 1.045 0 0.231-0.244 0.42-0.542 0.42-0.297 0-0.986 0.412-1.529 0.915-0.543 0.504-1.43 1.269-1.97 1.7-2.024 1.617-6.759 8.027-6.759 9.152 0 0.281-0.344 0.908-0.765 1.393s-0.979 1.773-1.24 2.861-0.621 1.979-0.799 1.979-0.536 1.305-0.796 2.9-0.726 3.671-1.036 4.614c-0.427 1.298-0.564 4.258-0.565 12.2v10.486l1.1 2.295c0.606 1.262 1.283 2.297 1.505 2.3s0.628 0.365 0.903 0.805c0.453 0.725 0.933 0.8 5.096 0.8h4.597v-6.515c0-5.566 0.109-6.729 0.745-7.978 0.41-0.803 0.864-2.203 1.009-3.11s0.62-2.032 1.055-2.499 0.791-1.14 0.791-1.496c0-0.355 0.45-1.257 1-2.002s1-1.527 1-1.736c0-0.428 0.348-0.812 4.679-5.164 1.697-1.705 3.202-3.1 3.345-3.1 0.142 0 0.745-0.45 1.338-1 0.594-0.55 1.436-1 1.871-1 0.436 0 0.895-0.268 1.021-0.596 0.125-0.327 0.975-0.794 1.887-1.037 0.913-0.243 1.942-0.694 2.288-1.002 0.346-0.309 1.516-0.667 2.6-0.798 1.084-0.13 2.65-0.491 3.479-0.802 2.1-0.787 9.717-0.764 11.63 0.035 0.79 0.33 1.937 0.602 2.549 0.604s2.013 0.446 3.113 0.987 2.291 0.99 2.646 0.996c0.355 7e-3 1.104 0.373 1.663 0.813 0.56 0.44 1.15 0.8 1.313 0.8 0.742 0 4.722 3.019 6.976 5.291 2.897 2.921 6.784 8.6 6.815 9.956 6e-3 0.304 0.455 1.453 0.996 2.553s0.985 2.473 0.987 3.051 0.289 1.734 0.638 2.568c0.493 1.181 0.607 2.671 0.514 6.748l-0.119 5.233 21.586 0.111c25.899 0.132 23.279 0.52 22.937-3.396-0.263-3.004 0.15-8.509 0.705-9.407 0.148-0.239 0.492-1.441 0.765-2.671 0.593-2.674 2.18-6.51 2.878-6.957 0.275-0.176 0.5-0.517 0.5-0.758 0-2.245 10.043-12.322 12.279-12.322 0.219 0 0.723-0.36 1.121-0.8s1.08-0.8 1.515-0.8 1.356-0.35 2.047-0.777 2.368-0.955 3.726-1.174c1.357-0.219 2.826-0.589 3.264-0.823 1.185-0.635 9.175-0.532 11.277 0.144 0.974 0.314 2.624 0.684 3.666 0.824 1.043 0.139 2.141 0.499 2.44 0.798 0.3 0.3 1.301 0.748 2.225 0.997 0.925 0.249 1.781 0.713 1.903 1.032 0.123 0.318 0.54 0.579 0.929 0.579 1.75 0 11.608 9.38 11.608 11.045 0 0.31 0.36 0.871 0.8 1.248s0.801 0.96 0.802 1.296 0.446 1.331 0.988 2.211 0.991 2.145 0.998 2.811c6e-3 0.666 0.327 1.656 0.712 2.2 1.19 1.681 1.253 13.164 0.093 16.936-0.483 1.569-1.052 3.438-1.266 4.153s-0.552 1.3-0.75 1.3c-0.199 0-0.48 0.495-0.624 1.1-0.306 1.285-2.535 4.9-3.02 4.9-0.183 0-0.333 0.191-0.333 0.423 0 1.121-6.005 6.951-8.825 8.568-2.628 1.507-5.762 2.987-6.817 3.218-0.683 0.15-2.046 0.629-3.028 1.063-2.398 1.061-15.698 0.968-17.358-0.121-0.544-0.358-1.75-0.778-2.679-0.935s-1.787-0.445-1.907-0.639c-0.121-0.195-0.977-0.726-1.903-1.18-3.518-1.725-4.683-2.415-4.683-2.773 0-0.204-0.315-0.471-0.7-0.594-0.385-0.124-1.197-0.721-1.805-1.327-2.329-2.323-4.695-4.972-4.695-5.257 0-0.163-0.505-0.78-1.122-1.371l-1.122-1.075h-26.782-26.782l-1.096 1.016c-0.603 0.559-1.096 1.155-1.096 1.324 0 0.495-5.836 6.46-6.32 6.46-0.242 0-0.609 0.301-0.814 0.668-0.37 0.662-1.514 1.359-4.722 2.881-0.911 0.431-1.767 0.964-1.902 1.183s-0.99 0.524-1.9 0.678c-0.91 0.153-2.394 0.615-3.298 1.026-2.473 1.123-14.458 1.103-16.95-0.028-0.938-0.425-2.378-0.894-3.2-1.042-0.821-0.147-1.764-0.497-2.094-0.777s-1.23-0.797-2-1.148c-1.326-0.606-1.887-0.948-4.64-2.836-1.791-1.227-6.56-6.198-6.56-6.836 0-0.313-0.184-0.569-0.409-0.569-0.224 0-0.613-0.45-0.864-1l-0.455-1-8.436-6e-3c-6.612-5e-3 -8.652-0.131-9.436-0.583-0.55-0.317-1.417-0.765-1.927-0.994-2.075-0.935-6.438-4.877-6.462-5.839-6e-3 -0.233-0.461-1.033-1.011-1.778s-1-1.711-1-2.146-0.286-1.107-0.635-1.492c-1.726-1.908-1.752-27.6-0.033-32.171 0.329-0.875 0.7-2.438 0.823-3.474 0.124-1.035 0.589-2.563 1.035-3.394 0.445-0.831 0.81-1.762 0.81-2.068 0-0.536 2.352-5.646 2.787-6.055 0.117-0.11 0.53-0.83 0.918-1.6 0.669-1.329 1.039-1.925 2.882-4.64 1.642-2.419 4.352-5.218 7.201-7.44 4.297-3.35 4.534-3.52 4.898-3.52 0.197 0 0.969-0.45 1.714-1s1.68-1 2.078-1c0.397 0 0.722-0.186 0.722-0.414s0.765-0.776 1.7-1.217c0.935-0.442 2.42-1.238 3.3-1.77 1.726-1.043 3.582-2.072 5.8-3.218 1.276-0.659 8.561-6.353 10.682-8.351 0.486-0.456 1.446-1.28 2.135-1.83 0.688-0.55 1.753-1.45 2.367-2 0.613-0.55 1.599-1.36 2.191-1.8 0.591-0.44 1.374-1.115 1.739-1.5s0.781-0.7 0.924-0.7c0.144 0 1.032-0.705 1.974-1.566s2.174-1.806 2.738-2.1 1.335-0.804 1.712-1.134c0.378-0.33 1.104-0.912 1.613-1.294 0.509-0.381 1.625-1.236 2.48-1.9 0.855-0.663 1.8-1.206 2.1-1.206s0.545-0.176 0.545-0.392c0-0.215 0.735-0.8 1.634-1.3 0.899-0.499 2.188-1.215 2.865-1.589 0.677-0.375 1.337-0.825 1.466-1 0.129-0.176 0.94-0.679 1.802-1.119 3.39-1.731 4.1-2.158 4.606-2.767 0.289-0.348 0.79-0.633 1.114-0.633s1.067-0.336 1.651-0.748c0.584-0.411 1.512-0.882 2.062-1.047s1.27-0.527 1.6-0.805 1.05-0.638 1.6-0.8 1.27-0.521 1.6-0.797 1.32-0.727 2.2-1.003 1.87-0.728 2.2-1.006 1.23-0.638 2-0.802c0.77-0.163 1.829-0.633 2.354-1.044s1.337-0.748 1.806-0.748c0.468 0 1.5-0.347 2.292-0.772 0.792-0.424 2.096-0.895 2.898-1.045 0.802-0.151 2.125-0.613 2.939-1.028s1.944-0.755 2.511-0.755 1.689-0.335 2.493-0.746c0.804-0.41 2.339-0.861 3.409-1.003 1.071-0.142 2.967-0.617 4.213-1.055s2.904-0.796 3.686-0.796c0.781 0 2.81-0.356 4.51-0.791 1.699-0.435 5.339-0.963 8.089-1.173s5.9-0.563 7-0.785c3.34-0.673 33.065-0.572 34.892 0.119 0.829 0.314 2.519 0.684 3.755 0.823 1.236 0.138 2.901 0.601 3.699 1.029s1.787 0.778 2.199 0.778c0.411 0 1.176 0.335 1.701 0.745s1.401 0.885 1.946 1.056c0.546 0.171 1.446 0.618 2 0.993 0.555 0.374 1.818 1.198 2.808 1.831 2.492 1.592 8.621 7.333 11.131 10.428 0.512 0.631 1.366 1.687 1.899 2.347s0.969 1.425 0.97 1.7c0 0.275 0.189 0.5 0.42 0.5 0.232 0 0.671 0.599 0.977 1.332 0.306 0.732 0.837 1.564 1.18 1.849 0.343 0.284 0.623 0.757 0.623 1.05 0 0.294 0.45 1.197 1 2.007 0.55 0.811 1 1.786 1 2.169 0 0.382 0.25 0.903 0.556 1.156 0.305 0.254 0.768 1.308 1.029 2.344 0.261 1.035 0.655 2.1 0.876 2.366 0.22 0.266 0.642 1.439 0.937 2.605 0.295 1.167 0.813 2.842 1.152 3.722 0.338 0.88 0.623 2.152 0.632 2.827 0.01 0.675 0.282 2.118 0.606 3.206 1.05 3.538 1.41 12.37 1.411 34.643 1e-3 12.523 0.155 21.972 0.361 22.099 0.198 0.122 0.58 1.143 0.85 2.267 1.381 5.758 8.384 14.386 12.79 15.757 0.55 0.171 1.429 0.646 1.954 1.056s1.341 0.745 1.814 0.745 1.933 0.379 3.246 0.843c2.609 0.921 10.742 0.976 11.854 0.079 0.293-0.236 1.491-0.631 2.663-0.878s2.4-0.717 2.728-1.046c0.328-0.328 1.079-0.716 1.669-0.862s1.307-0.596 1.595-1.001c0.287-0.404 0.753-0.735 1.036-0.735 0.615 0 5.632-4.98 6.448-6.4 0.316-0.55 0.944-1.72 1.396-2.6s0.983-1.87 1.18-2.2c0.198-0.33 0.824-2.13 1.391-4l1.032-3.4-0.206-60.8-7-0.231c-3.85-0.127-7.45-0.42-8-0.651s-2.287-0.548-3.86-0.705c-1.572-0.157-3.321-0.525-3.885-0.818s-2.019-0.738-3.233-0.99c-1.214-0.253-2.305-0.615-2.422-0.806-0.118-0.19-1.201-0.633-2.407-0.984s-2.193-0.805-2.193-1.011c0-0.205-0.699-0.561-1.553-0.791-0.855-0.231-1.777-0.687-2.049-1.016-0.273-0.328-0.699-0.6-0.947-0.604-0.51-9e-3 -3.722-2.052-4.685-2.981-0.348-0.337-0.833-0.612-1.077-0.612s-0.679-0.332-0.966-0.737c-0.288-0.405-0.743-0.81-1.012-0.9-0.994-0.331-7.223-6.248-9.333-8.864-1.198-1.486-2.583-3.177-3.078-3.758-0.495-0.582-0.9-1.302-0.9-1.599 0-0.298-0.167-0.542-0.37-0.542-0.406 0-1.679-2.093-3.527-5.8-2.601-5.218-3.303-6.846-3.303-7.657 0-0.465-0.261-1.062-0.58-1.327-0.32-0.265-0.706-1.322-0.859-2.349s-0.635-2.857-1.073-4.067c-1.024-2.833-1.593-27.509-0.66-28.633 0.8-0.964 27.003-0.666 29.372 0.334m-18.1 10.736c-1.008 1.054-0.198 13.587 1.103 17.062 0.438 1.172 0.803 2.439 0.81 2.816 6e-3 0.377 0.455 1.585 0.996 2.685s0.985 2.304 0.987 2.676 0.202 0.799 0.445 0.949c0.242 0.15 0.702 0.899 1.022 1.665 0.32 0.765 0.755 1.598 0.967 1.851 0.66 0.787 2.755 4.047 2.763 4.298 0.025 0.821 10.598 11.561 11.382 11.561 0.102 0 1.029 0.585 2.06 1.3 2.427 1.683 6.489 3.9 7.145 3.9 0.282 0 0.941 0.334 1.466 0.742s1.655 0.871 2.512 1.029c0.858 0.158 1.953 0.545 2.435 0.861s2.35 0.759 4.151 0.985c1.802 0.226 3.733 0.584 4.292 0.797 1.332 0.506 4.164 0.497 4.164-0.014 0-0.22-0.18-0.4-0.4-0.4s-0.4-0.16-0.4-0.355c0-0.344-3.069-3.417-9.098-9.109-3.142-2.967-3.693-3.496-4.302-4.132-0.22-0.23-2.565-2.53-5.211-5.111-5.67-5.53-6.786-7.116-6.413-9.108 0.143-0.762 0.432-1.385 0.642-1.385s0.388-0.225 0.395-0.5c0.048-1.808 2.953-3.097 6.258-2.777 1.309 0.127 0.943-0.2 16.697 14.913 7.481 7.176 10.265 9.751 10.729 9.918 0.5 0.18 0.105-4.03-0.481-5.125-0.202-0.377-0.583-1.933-0.846-3.458-0.263-1.524-0.724-3.126-1.024-3.56s-0.546-1.05-0.546-1.368c0-0.549-2.023-5.155-2.83-6.443-0.207-0.33-0.596-1.05-0.865-1.6s-0.582-1.09-0.697-1.2c-0.114-0.11-0.928-1.28-1.808-2.6-2.28-3.42-12.018-13-13.214-13-0.269 0-0.698-0.253-0.955-0.563s-1.09-0.858-1.849-1.219c-0.76-0.361-1.382-0.827-1.382-1.037 0-0.209-0.335-0.381-0.744-0.381s-1.407-0.45-2.218-1c-0.81-0.55-1.846-1-2.301-1-0.456 0-1.483-0.344-2.283-0.764-1.32-0.693-3.876-1.443-8.254-2.423-3.006-0.673-14.741-0.961-15.3-0.376m83.506 18.786c-0.766 0.427-1.719 0.777-2.117 0.777-2.255 0-9.389 7.223-10.132 10.259-0.154 0.627-0.612 1.768-1.018 2.535-1.406 2.653-0.918 5.81 0.795 5.15 0.586-0.226 2.098-0.579 3.36-0.785 1.261-0.206 2.951-0.821 3.755-1.367 0.805-0.545 1.664-0.992 1.911-0.992 0.246 0 0.672-0.36 0.947-0.8s0.659-0.8 0.854-0.8c0.522 0 2.646-2.088 2.951-2.9 0.145-0.385 0.427-0.7 0.627-0.7s0.595-0.585 0.878-1.3 0.75-1.579 1.038-1.92 0.809-1.871 1.158-3.4 0.734-3.185 0.857-3.68c0.305-1.23-3.701-1.283-5.864-0.077m-252.54 109.17c-1.066 0.194-2.25 0.635-2.631 0.98-0.382 0.346-0.964 0.628-1.294 0.628-1.674 0-8.337 7.559-8.337 9.457 0 0.426-0.36 1.48-0.8 2.343-1.408 2.762-0.75 8.532 1.438 12.6 0.295 0.55 0.768 1.441 1.05 1.98 0.661 1.266 3.866 4.471 5.132 5.132 0.539 0.282 1.43 0.754 1.98 1.05 3.933 2.114 10.024 2.846 12.659 1.521 0.847-0.426 2.216-0.897 3.041-1.047s1.5-0.439 1.5-0.644c0-0.204 0.495-0.631 1.1-0.948 1.827-0.959 6.1-5.542 6.1-6.543 0-0.318 0.405-1.145 0.9-1.839 1.214-1.703 1.366-12.464 0.193-13.759-0.376-0.415-0.893-1.357-1.149-2.092-2.121-6.085-12.296-10.382-20.882-8.819m112.56 0.063c-1.198 0.198-2.458 0.606-2.8 0.905-0.343 0.3-1.028 0.669-1.524 0.82-1.361 0.415-5.978 5.156-6.697 6.877-0.348 0.833-0.82 1.63-1.048 1.771-1.226 0.758-1.332 12.339-0.132 14.411 0.306 0.529 0.817 1.506 1.136 2.172 0.704 1.475 4.422 5.255 5.939 6.039 0.607 0.314 1.103 0.731 1.103 0.927s0.943 0.559 2.095 0.806 2.516 0.725 3.031 1.063c1.823 1.194 8.435 0.272 12.074-1.684 0.55-0.296 1.441-0.768 1.98-1.05 1.323-0.691 4.7-4.103 5.001-5.053 0.134-0.42 0.597-1.173 1.031-1.673 0.433-0.499 0.792-1.286 0.797-1.747 5e-3 -0.462 0.365-1.624 0.8-2.583 1.042-2.297 1.039-5.798-9e-3 -8.456-0.44-1.116-0.8-2.383-0.8-2.815s-0.342-1.127-0.761-1.546c-0.418-0.418-0.872-1.093-1.009-1.5-0.511-1.516-5.592-6.139-6.748-6.139-0.321 0-0.794-0.253-1.05-0.562-1.012-1.219-7.764-1.754-12.409-0.983" fill="#fbfbfb"/>
<path d="m89.356 229.96c-0.684 0.173-1.669 0.613-2.189 0.977s-1.372 0.662-1.893 0.662-1.405 0.36-1.965 0.8c-0.559 0.44-1.238 0.8-1.508 0.8s-1.191 0.534-2.046 1.186c-0.855 0.653-1.985 1.508-2.511 1.9-0.526 0.393-1.357 1.119-1.846 1.614s-1.094 0.9-1.344 0.9-0.454 0.165-0.454 0.366-0.358 0.786-0.796 1.3c-1.951 2.287-3.204 4.087-3.204 4.602 0 0.306-0.252 0.654-0.559 0.772-0.308 0.118-0.756 0.992-0.995 1.942-0.239 0.951-0.684 1.824-0.988 1.94-0.341 0.131-0.622 1.035-0.731 2.355-0.098 1.177-0.481 2.75-0.852 3.494-1.434 2.873-0.548 15.63 1.328 19.131 0.439 0.817 0.797 1.792 0.797 2.165s0.54 1.063 1.2 1.533 1.2 1.069 1.2 1.331 0.36 0.701 0.8 0.976 0.8 0.756 0.8 1.069c0 0.314 0.36 0.684 0.8 0.824s0.8 0.395 0.8 0.569c0 0.793 5.659 5.764 7.047 6.191 0.466 0.143 1.169 0.616 1.562 1.05 0.393 0.435 1.13 0.79 1.637 0.79 0.508 0 1.245 0.335 1.638 0.745 0.466 0.485 1.529 0.825 3.047 0.974 1.282 0.126 2.781 0.524 3.331 0.885 1.523 0.998 9.91 0.987 12.009-0.016 0.841-0.402 2.489-0.812 3.662-0.911 1.309-0.112 2.214-0.395 2.345-0.735 0.116-0.304 0.989-0.749 1.94-0.988 0.95-0.239 1.824-0.687 1.942-0.995 0.118-0.307 0.466-0.559 0.772-0.559 0.515 0 2.315-1.253 4.602-3.204 0.514-0.438 1.099-0.796 1.3-0.796s0.366-0.157 0.366-0.349c0-0.193 0.723-1.138 1.607-2.1 0.883-0.963 1.828-2.248 2.099-2.856 0.272-0.607 0.804-1.203 1.183-1.323 0.839-0.267 1.991-1.883 2.688-3.772 0.284-0.77 0.786-2.009 1.114-2.753 0.928-2.103 0.679-20.047-0.278-20.047-0.435 0-1.213-1.919-1.213-2.99 0-0.524-0.277-1.23-0.617-1.57-0.339-0.339-0.816-1.189-1.06-1.888-0.244-0.7-0.694-1.56-1-1.912-0.307-0.352-1.374-1.68-2.372-2.952-0.997-1.271-2.925-3.201-4.282-4.289-1.358-1.088-2.757-2.226-3.109-2.529-0.352-0.302-1.212-0.749-1.912-0.993-0.699-0.244-1.549-0.721-1.888-1.06-0.34-0.34-1.078-0.617-1.641-0.617-0.564 0-1.676-0.405-2.472-0.9-1.543-0.96-14.85-1.509-17.891-0.739m112.84-0.085c-0.66 0.105-1.47 0.432-1.8 0.726-0.33 0.295-1.14 0.65-1.8 0.79-1.363 0.289-5.381 2.19-5.994 2.836-0.223 0.235-0.946 0.763-1.606 1.171-1.778 1.102-5.566 4.815-6.863 6.728-0.624 0.92-1.34 1.806-1.591 1.968s-0.581 0.792-0.733 1.4c-0.151 0.608-0.515 1.375-0.807 1.705s-0.745 1.41-1.006 2.4-0.746 2.105-1.078 2.477c-1.056 1.184-1.401 17.059-0.433 19.923 0.409 1.21 0.928 2.796 1.153 3.526 0.226 0.729 1.09 1.989 1.921 2.8 0.831 0.81 1.748 1.924 2.038 2.474 0.289 0.55 0.857 1.235 1.262 1.523 0.406 0.287 0.737 0.673 0.737 0.857 0 0.455 2.235 2.82 2.664 2.82 0.189 0 0.568 0.36 0.843 0.8s0.746 0.8 1.047 0.8c0.302 0 0.795 0.298 1.097 0.662s1.134 0.906 1.849 1.205 1.3 0.707 1.3 0.907c0 0.199 0.532 0.479 1.181 0.622 0.65 0.143 1.595 0.58 2.1 0.971 0.506 0.391 1.864 0.82 3.019 0.953s2.749 0.55 3.543 0.927c2.13 1.011 10.395 1.013 11.937 3e-3 0.6-0.394 2.093-0.819 3.318-0.945 1.384-0.143 2.506-0.509 2.964-0.967 0.406-0.406 1.166-0.738 1.689-0.738s1.198-0.298 1.5-0.662 1.142-0.91 1.866-1.213c0.725-0.302 1.419-0.815 1.543-1.138s0.453-0.587 0.731-0.587c0.712 0 6.609-5.9 6.609-6.613 0-0.323 0.27-0.587 0.6-0.587s0.6-0.346 0.6-0.769 0.45-1.304 1-1.958 1-1.543 1-1.977c0-0.433 0.346-1.228 0.769-1.765 0.463-0.589 0.929-2.141 1.174-3.909 0.224-1.612 0.598-3.123 0.832-3.357 0.639-0.639 0.538-8.293-0.131-9.916-0.306-0.742-0.686-2.519-0.845-3.949-0.194-1.746-0.537-2.835-1.044-3.316-0.415-0.393-0.755-1.16-0.755-1.703 0-0.544-0.36-1.297-0.8-1.674s-0.8-0.89-0.8-1.141c0-0.426-1.366-2.345-3.204-4.5-0.438-0.514-0.796-1.078-0.796-1.253 0-0.176-0.36-0.414-0.8-0.529s-0.8-0.496-0.8-0.847c0-0.35-0.241-0.637-0.534-0.637-0.294 0-1.656-0.9-3.027-2s-2.726-2-3.012-2c-0.285 0-0.948-0.332-1.473-0.739-0.525-0.406-1.651-0.848-2.504-0.983-0.852-0.134-1.906-0.566-2.341-0.961-0.789-0.715-13.819-1.197-17.309-0.641m-100.77 12.291c0.446 0.312 1.521 0.689 2.389 0.837 0.869 0.149 2.068 0.614 2.664 1.033 0.596 0.42 1.287 0.763 1.535 0.763 0.561 0 6.381 5.892 6.381 6.46 0 0.228 0.34 0.846 0.755 1.373 0.415 0.528 0.882 1.636 1.037 2.463 0.155 0.826 0.49 1.631 0.745 1.788 0.636 0.393 0.62 8.279-0.02 9.553-0.266 0.53-0.678 1.728-0.916 2.663-0.237 0.935-0.587 1.7-0.777 1.7s-0.539 0.555-0.775 1.232c-0.698 2.002-6.864 7.568-8.384 7.568-0.444 0-1.082 0.275-1.418 0.61-1.654 1.654-11.762 1.795-13.927 0.194-0.598-0.442-1.475-0.804-1.948-0.804-1.213 0-7.172-5.022-7.172-6.045 0-0.198-0.45-0.752-1-1.23-0.613-0.533-1-1.295-1-1.969 0-0.604-0.301-1.4-0.67-1.769-1.587-1.587-1.754-12.383-0.207-13.34 0.228-0.14 0.539-0.793 0.691-1.451 0.546-2.349 6.113-8.996 7.535-8.996 0.291 0 0.917-0.337 1.393-0.749 0.475-0.412 1.558-0.861 2.408-0.997 0.849-0.135 2.063-0.517 2.697-0.848 1.525-0.795 6.868-0.821 7.984-0.039m112.39-4e-3c0.442 0.309 1.674 0.693 2.738 0.852 1.101 0.165 2.211 0.613 2.575 1.038 0.352 0.411 0.942 0.747 1.311 0.747 1.383 0 7.551 7.003 7.551 8.574 0 0.285 0.334 0.947 0.741 1.472 1.541 1.983 1.546 11.839 7e-3 13.613-0.411 0.475-0.748 1.286-0.748 1.802 0 0.517-0.342 1.281-0.761 1.7-0.418 0.418-0.88 1.138-1.026 1.6-0.147 0.461-0.525 0.839-0.84 0.839s-0.573 0.239-0.573 0.53c0 0.93-4.927 4.67-6.152 4.67-0.438 0-1.215 0.393-1.726 0.874-1.437 1.35-11.21 1.369-13.369 0.026-0.796-0.495-1.758-0.9-2.137-0.9-1.229 0-8.216-6.179-8.216-7.265 0-0.26-0.257-0.756-0.571-1.104-2.217-2.45-3.332-11.12-1.829-14.231 0.425-0.88 0.779-2.067 0.786-2.638 8e-3 -0.571 0.374-1.364 0.814-1.762s0.8-0.875 0.8-1.059c0-1.158 4.401-5.695 6.4-6.598 0.33-0.149 0.911-0.591 1.292-0.981 0.38-0.391 1.531-0.836 2.558-0.99s2.336-0.525 2.909-0.824c1.399-0.73 6.417-0.72 7.466 0.015" fill="#424a52"/>
<path d="m250.43 104.97c-0.933 1.124-0.364 25.8 0.66 28.633 0.438 1.21 0.92 3.04 1.073 4.067s0.539 2.084 0.859 2.349c0.319 0.265 0.58 0.862 0.58 1.327 0 1.61 6.013 13.457 6.83 13.457 0.203 0 0.37 0.244 0.37 0.542 0 0.297 0.405 1.017 0.9 1.599 0.495 0.581 1.88 2.272 3.078 3.758 2.11 2.616 8.339 8.533 9.333 8.864 0.269 0.09 0.724 0.495 1.012 0.9 0.287 0.405 0.722 0.737 0.966 0.737s0.729 0.275 1.077 0.612c0.963 0.929 4.175 2.972 4.685 2.981 0.248 4e-3 0.674 0.276 0.947 0.604 0.272 0.329 1.194 0.785 2.049 1.016 0.854 0.23 1.553 0.586 1.553 0.791 0 0.206 0.987 0.66 2.193 1.011s2.289 0.794 2.407 0.984c0.117 0.191 1.208 0.553 2.422 0.806 1.214 0.252 2.669 0.697 3.233 0.99s2.313 0.661 3.885 0.818c1.573 0.157 3.31 0.474 3.86 0.705s4.15 0.524 8 0.651l7 0.231 0.206 60.8-1.032 3.4c-0.567 1.87-1.193 3.67-1.391 4-0.197 0.33-0.728 1.32-1.18 2.2s-1.08 2.05-1.396 2.6c-0.816 1.42-5.833 6.4-6.448 6.4-0.283 0-0.749 0.331-1.036 0.735-0.288 0.405-1.005 0.855-1.595 1.001s-1.341 0.534-1.669 0.862c-0.328 0.329-1.556 0.799-2.728 1.046s-2.37 0.642-2.663 0.878c-1.112 0.897-9.245 0.842-11.854-0.079-1.313-0.464-2.773-0.843-3.246-0.843s-1.289-0.335-1.814-0.745-1.404-0.885-1.954-1.056c-4.406-1.371-11.409-9.999-12.79-15.757-0.27-1.124-0.652-2.145-0.85-2.267-0.206-0.127-0.36-9.576-0.361-22.099-1e-3 -22.273-0.361-31.105-1.411-34.643-0.324-1.088-0.596-2.531-0.606-3.206-9e-3 -0.675-0.294-1.947-0.632-2.827-0.339-0.88-0.857-2.555-1.152-3.722-0.295-1.166-0.717-2.339-0.937-2.605-0.221-0.266-0.615-1.331-0.876-2.366-0.261-1.036-0.724-2.09-1.029-2.344-0.306-0.253-0.556-0.774-0.556-1.156 0-0.383-0.45-1.358-1-2.169-0.55-0.81-1-1.713-1-2.007 0-0.293-0.28-0.766-0.623-1.05-0.343-0.285-0.874-1.117-1.18-1.849-0.306-0.733-0.745-1.332-0.977-1.332-0.231 0-0.42-0.225-0.42-0.5-1e-3 -0.275-0.437-1.04-0.97-1.7s-1.387-1.716-1.899-2.347c-2.51-3.095-8.639-8.836-11.131-10.428-0.99-0.633-2.253-1.457-2.808-1.831-0.554-0.375-1.454-0.822-2-0.993-0.545-0.171-1.421-0.646-1.946-1.056s-1.29-0.745-1.701-0.745c-0.412 0-1.401-0.35-2.199-0.778s-2.463-0.891-3.699-1.029c-1.236-0.139-2.926-0.509-3.755-0.823-1.827-0.691-31.552-0.792-34.892-0.119-1.1 0.222-4.25 0.575-7 0.785s-6.39 0.738-8.089 1.173c-1.7 0.435-3.729 0.791-4.51 0.791-0.782 0-2.44 0.358-3.686 0.796s-3.142 0.913-4.213 1.055c-1.07 0.142-2.605 0.593-3.409 1.003-0.804 0.411-1.926 0.746-2.493 0.746s-1.697 0.34-2.511 0.755-2.137 0.877-2.939 1.028c-0.802 0.15-2.106 0.621-2.898 1.045-0.792 0.425-1.824 0.772-2.292 0.772-0.469 0-1.281 0.337-1.806 0.748s-1.584 0.881-2.354 1.044c-0.77 0.164-1.67 0.524-2 0.802s-1.32 0.73-2.2 1.006-1.87 0.727-2.2 1.003-1.05 0.635-1.6 0.797-1.27 0.522-1.6 0.8-1.05 0.64-1.6 0.805-1.478 0.636-2.062 1.047c-0.584 0.412-1.327 0.748-1.651 0.748s-0.825 0.285-1.114 0.633c-0.506 0.609-1.216 1.036-4.606 2.767-0.862 0.44-1.673 0.943-1.802 1.119-0.129 0.175-0.789 0.625-1.466 1-0.677 0.374-1.966 1.09-2.865 1.589-0.899 0.5-1.634 1.085-1.634 1.3 0 0.216-0.245 0.392-0.545 0.392s-1.245 0.543-2.1 1.206c-0.855 0.664-1.971 1.519-2.48 1.9-0.509 0.382-1.235 0.964-1.613 1.294-0.377 0.33-1.148 0.84-1.712 1.134s-1.796 1.239-2.738 2.1-1.83 1.566-1.974 1.566c-0.143 0-0.559 0.315-0.924 0.7s-1.148 1.06-1.739 1.5c-0.592 0.44-1.578 1.25-2.191 1.8-0.614 0.55-1.679 1.45-2.367 2-0.689 0.55-1.649 1.374-2.135 1.83-2.121 1.998-9.406 7.692-10.682 8.351-2.218 1.146-4.074 2.175-5.8 3.218-0.88 0.532-2.365 1.328-3.3 1.77-0.935 0.441-1.7 0.989-1.7 1.217s-0.325 0.414-0.722 0.414c-0.398 0-1.333 0.45-2.078 1s-1.517 1-1.714 1c-0.364 0-0.601 0.17-4.898 3.52-2.849 2.222-5.559 5.021-7.201 7.44-1.843 2.715-2.213 3.311-2.882 4.64-0.388 0.77-0.801 1.49-0.918 1.6-0.435 0.409-2.787 5.519-2.787 6.055 0 0.306-0.365 1.237-0.81 2.068-0.446 0.831-0.911 2.359-1.035 3.394-0.123 1.036-0.494 2.599-0.823 3.474-1.719 4.571-1.693 30.263 0.033 32.171 0.349 0.385 0.635 1.057 0.635 1.492s0.45 1.401 1 2.146 1.005 1.545 1.011 1.778c0.024 0.962 4.387 4.904 6.462 5.839 0.51 0.229 1.377 0.677 1.927 0.994 0.784 0.452 2.824 0.578 9.436 0.583l8.436 6e-3 0.455 1c0.251 0.55 0.64 1 0.864 1 0.225 0 0.409 0.256 0.409 0.569 0 0.638 4.769 5.609 6.56 6.836 2.753 1.888 3.314 2.23 4.64 2.836 0.77 0.351 1.702 0.907 2.07 1.234 0.369 0.327 0.999 0.531 1.4 0.454 0.471-0.092-0.383-0.707-2.409-1.735-4.308-2.187-8.777-5.871-11.823-9.745l-2.554-3.249-7.842-3e-3c-7.153-2e-3 -7.947-0.072-9.042-0.797-0.66-0.437-1.499-0.796-1.865-0.797-0.859-4e-3 -6.552-5.524-6.913-6.703-0.152-0.495-0.429-0.9-0.616-0.9s-0.536-0.917-0.777-2.038c-0.24-1.121-0.705-2.421-1.033-2.889-0.882-1.259-0.883-24.957-2e-3 -26.662 0.327-0.631 0.754-2.573 0.948-4.315 0.195-1.742 0.628-3.601 0.961-4.131 0.334-0.531 0.722-1.622 0.863-2.425 0.14-0.803 0.52-1.68 0.845-1.949 0.324-0.269 0.598-0.782 0.608-1.14 0.011-0.358 0.355-1.281 0.766-2.051 0.41-0.77 1.12-2.12 1.578-3 0.457-0.88 1.148-2.068 1.534-2.64 0.387-0.573 1.054-1.563 1.484-2.2 1.445-2.147 6.388-7.36 6.977-7.36 0.189 0 0.577-0.281 0.863-0.625 0.656-0.79 4.53-3.375 5.058-3.375 0.219 0 0.708-0.344 1.088-0.764 0.381-0.42 1.147-0.878 1.703-1.018 0.555-0.139 1.487-0.568 2.07-0.952 1.491-0.982 2.283-1.429 5.406-3.053 1.51-0.785 3.2-1.784 3.754-2.22s1.182-0.793 1.395-0.793c0.48 0 5.186-3.888 5.625-4.647 0.176-0.304 0.515-0.553 0.754-0.553s0.843-0.405 1.342-0.9c1.011-1.002 1.525-1.436 4.221-3.567 1.024-0.809 2.649-2.203 3.612-3.097s1.976-1.628 2.251-1.631 0.5-0.142 0.5-0.31c0-0.253 1.678-1.652 5.138-4.286 0.296-0.225 0.965-0.8 1.487-1.278s1.315-0.985 1.762-1.127 0.813-0.387 0.813-0.545c0-0.157 0.585-0.631 1.3-1.053 0.715-0.421 1.48-0.912 1.7-1.091 0.894-0.725 6.042-4.028 6.6-4.234 0.33-0.122 1.157-0.64 1.838-1.152 0.681-0.511 1.451-0.929 1.712-0.929s0.579-0.27 0.705-0.6c0.127-0.33 0.456-0.6 0.732-0.6s1.138-0.432 1.916-0.96 1.838-1.093 2.356-1.255c0.517-0.162 1.37-0.63 1.895-1.04s1.265-0.745 1.646-0.745 1.121-0.337 1.646-0.748 1.527-0.873 2.226-1.026c0.7-0.152 1.469-0.513 1.708-0.802 0.239-0.288 1.242-0.75 2.228-1.026 0.985-0.276 1.792-0.63 1.792-0.787 0-0.156 0.765-0.508 1.7-0.782s2.063-0.729 2.506-1.011 1.433-0.646 2.2-0.809c0.767-0.162 1.955-0.636 2.641-1.052s1.641-0.757 2.122-0.757 1.653-0.354 2.603-0.787c0.951-0.433 2.516-0.905 3.478-1.048 0.963-0.142 2.148-0.508 2.635-0.812 0.487-0.303 2.183-0.736 3.769-0.961s3.105-0.592 3.375-0.816 2.174-0.588 4.231-0.809 4.696-0.672 5.864-1.003c2.952-0.834 14.234-1.341 29.876-1.342 19.262-1e-3 20.383 0.166 29.4 4.366 4.851 2.259 10.943 7.451 16.212 13.814 2.217 2.678 2.608 3.255 3.87 5.698 0.482 0.935 1.022 1.7 1.198 1.7s0.32 0.179 0.32 0.398c0 0.218 0.808 2.116 1.797 4.216 0.988 2.101 1.909 4.307 2.047 4.903s0.47 1.443 0.738 1.883 0.712 1.954 0.985 3.364c0.274 1.41 0.738 2.94 1.032 3.4 0.293 0.46 0.662 2.456 0.82 4.436 0.157 1.98 0.563 4.41 0.901 5.4 0.521 1.524 0.64 5.691 0.777 27.174 0.155 24.315 0.194 25.415 0.932 26.354 0.424 0.539 0.774 1.361 0.777 1.826s0.268 1.296 0.589 1.846c0.32 0.55 0.815 1.45 1.098 2 1.739 3.369 5.243 7.187 8.507 9.268 3.101 1.977 4.5 2.732 5.063 2.732 0.312 0 1.281 0.397 2.152 0.882 2.187 1.216 15.576 1.393 16.869 0.223 0.423-0.383 1.387-0.818 2.142-0.967 0.756-0.149 1.824-0.577 2.374-0.951s2.04-1.346 3.311-2.162c2.557-1.64 6.689-5.661 6.689-6.508 0-0.298 0.27-0.646 0.6-0.772 0.33-0.127 0.6-0.456 0.6-0.732s0.45-1.164 1-1.975c0.55-0.81 1-1.787 1-2.171s0.405-1.411 0.9-2.282l0.9-1.585 0.112-31.989c0.081-23.428-0.012-32.287-0.349-33.1l-0.46-1.111-6.252-3e-3c-7.008-4e-3 -12.792-0.546-14.387-1.349-0.585-0.295-1.911-0.646-2.947-0.782-1.035-0.135-2.563-0.61-3.394-1.056-0.831-0.445-1.75-0.81-2.043-0.81-0.565 0-4.674-1.742-5.68-2.408-0.33-0.219-1.05-0.596-1.6-0.838-1.366-0.601-1.517-0.693-4.648-2.854-4.07-2.809-4.63-3.222-5.556-4.1-0.464-0.44-1.913-1.815-3.22-3.056-3.009-2.858-6.066-6.336-7.453-8.479-0.593-0.916-1.448-2.143-1.9-2.728-0.453-0.585-0.823-1.341-0.823-1.68 0-0.34-0.225-0.761-0.5-0.937-0.768-0.491-4.7-8.833-4.7-9.971 0-0.424-0.256-1.136-0.568-1.582-0.313-0.447-0.766-1.972-1.007-3.389-0.242-1.418-0.741-3.568-1.11-4.778-0.559-1.834-0.675-4.13-0.693-13.8l-0.022-11.6h12.639c10.006 0 12.774 0.112 13.287 0.539 0.357 0.296 2.063 0.66 3.792 0.808 1.916 0.165 3.56 0.543 4.21 0.969 0.586 0.384 1.878 0.81 2.871 0.946 0.992 0.136 2.169 0.564 2.615 0.95 0.446 0.387 1.417 0.817 2.158 0.956s1.568 0.518 1.837 0.843c0.269 0.324 0.693 0.589 0.943 0.589 0.414 0 7.392 4.015 8.412 4.841 0.24 0.194 1.516 1.204 2.836 2.244 3.756 2.961 5.661 4.835 8.856 8.715 1.63 1.98 3.23 3.885 3.554 4.234 0.325 0.348 0.59 0.843 0.59 1.1 0 0.256 0.329 0.795 0.731 1.197s1.123 1.527 1.603 2.5c0.479 0.973 1.234 2.219 1.676 2.769l0.804 1 1.022-1.2c0.562-0.66 1.479-1.903 2.037-2.762 1.299-1.999 5.171-5.917 6.727-6.807 0.66-0.377 1.92-1.119 2.8-1.649 2.018-1.214 3.296-1.782 4.014-1.782 0.309 0 1.304-0.387 2.212-0.861 1.476-0.769 2.472-0.881 9.391-1.054l7.74-0.195 0.27 1.077c0.538 2.142-0.028 12.733-0.754 14.113-0.37 0.704-0.673 1.712-0.673 2.241 0 0.528-0.45 1.806-1 2.841-0.55 1.034-1 2.113-1 2.397s-0.355 0.839-0.79 1.232c-0.434 0.393-0.895 1.048-1.025 1.456-0.29 0.914-1.418 2.291-3.852 4.703-3.092 3.064-3.642 3.494-5.933 4.641-5.071 2.538-6.689 3.072-11.6 3.825-3.949 0.606-3.6-3.47-3.6 42.034 0 27.706-0.134 40.65-0.429 41.424-0.236 0.619-0.707 2.47-1.047 4.112s-0.849 3.352-1.132 3.8c-0.282 0.448-0.635 1.397-0.784 2.109-0.148 0.713-0.451 1.408-0.672 1.544-0.221 0.137-0.741 1.039-1.155 2.005s-0.939 1.756-1.167 1.756-0.414 0.247-0.414 0.55c0 0.534-1.27 2.187-3.1 4.034-0.495 0.499-0.9 1.112-0.9 1.362s-0.171 0.454-0.379 0.454c-0.209 0-0.826 0.405-1.372 0.9-2.227 2.021-5.845 4.7-6.348 4.7-0.189 0-1.006 0.45-1.815 1s-1.858 1-2.33 1-1.07 0.255-1.329 0.568c-0.259 0.312-1.737 0.781-3.285 1.042-1.547 0.261-3.292 0.724-3.877 1.03-1.749 0.912-10.542 0.758-13.665-0.24-1.377-0.44-2.893-0.8-3.368-0.8-0.474 0-1.569-0.36-2.432-0.8s-1.856-0.8-2.207-0.8-1.248-0.45-1.993-1-1.519-1-1.72-1c-0.2 0-0.873-0.405-1.495-0.9-0.621-0.495-1.775-1.35-2.563-1.9-1.953-1.362-5.822-5.023-5.822-5.508 0-0.217-0.281-0.627-0.625-0.913-0.8-0.664-3.375-4.533-3.375-5.071 0-0.226-0.269-0.633-0.597-0.906-0.329-0.272-0.793-1.221-1.032-2.109-0.239-0.887-0.664-1.843-0.944-2.123-0.28-0.281-0.63-1.529-0.776-2.774-0.146-1.246-0.578-2.834-0.959-3.53-0.631-1.154-0.71-3.649-0.892-28.266-0.15-20.236-0.323-27.214-0.689-27.853-0.269-0.47-0.694-2.171-0.943-3.78-0.25-1.61-0.688-3.296-0.973-3.747s-0.642-1.589-0.793-2.528-0.514-1.947-0.807-2.24c-0.292-0.292-0.727-1.258-0.966-2.145-0.239-0.888-0.686-1.822-0.993-2.077-0.306-0.254-0.673-0.923-0.814-1.487-0.142-0.563-0.581-1.5-0.977-2.083s-1.243-1.864-1.882-2.847c-1.34-2.058-1.465-2.216-4.269-5.366-1.152-1.294-3.084-3.138-4.294-4.099-1.21-0.96-2.485-2.017-2.834-2.347-0.348-0.331-0.77-0.601-0.938-0.601-0.167 0-0.782-0.336-1.366-0.748-0.584-0.411-1.512-0.882-2.062-1.047s-1.299-0.562-1.665-0.883c-0.366-0.32-1.716-0.824-3-1.118s-3.055-0.726-3.935-0.96c-2.566-0.682-29.58-0.571-35.08 0.143-2.486 0.324-6.412 0.765-8.725 0.981-2.313 0.217-4.833 0.653-5.6 0.969s-2.547 0.705-3.954 0.865c-1.408 0.16-3.298 0.626-4.2 1.035-0.903 0.41-2.184 0.749-2.847 0.754s-1.833 0.343-2.6 0.752-2.234 0.867-3.261 1.02c-1.027 0.152-2.068 0.518-2.313 0.813s-1.208 0.651-2.139 0.791-2.231 0.608-2.887 1.041c-0.657 0.433-1.517 0.788-1.912 0.789-0.395 2e-3 -1.564 0.453-2.597 1.003s-2.184 1-2.558 1-0.782 0.166-0.908 0.368c-0.125 0.203-1.08 0.689-2.123 1.08s-1.986 0.818-2.096 0.949c-0.11 0.132-1.64 0.942-3.4 1.8-1.76 0.859-3.438 1.796-3.729 2.082-0.29 0.287-0.771 0.521-1.069 0.521-0.297 0-1.075 0.45-1.729 1s-1.467 1-1.807 1-0.724 0.17-0.853 0.379c-0.313 0.507-3.761 2.821-4.202 2.821-0.192 0-0.86 0.405-1.483 0.9-0.624 0.495-1.432 1.08-1.796 1.3-1.987 1.202-5.776 3.994-6.052 4.46-0.176 0.297-0.529 0.54-0.786 0.54-0.256 0-0.832 0.363-1.28 0.806-0.448 0.444-3.199 2.717-6.114 5.051-8.373 6.706-10.874 6.143 27.3 6.143 32.401 0 36.255-0.16 39.112-1.625 0.832-0.426 1.763-0.775 2.07-0.775 0.306 0 1.091-0.45 1.745-1s1.3-1 1.436-1c0.942 0 7.837-8.122 7.837-9.232 0-0.216 0.45-1.461 1-2.768 0.735-1.747 1-3.095 1-5.094 0-6.273 5.337-9.243 9.143-5.089l1.371 1.496-0.236 3.843c-0.131 2.114-0.508 4.654-0.84 5.644s-0.815 2.655-1.073 3.7-0.606 1.9-0.774 1.9c-0.167 0-0.428 0.495-0.578 1.1-0.151 0.605-0.935 2.063-1.743 3.24-0.809 1.177-1.74 2.542-2.07 3.034-0.74 1.101-4.27 4.543-5.771 5.626-0.61 0.44-1.746 1.295-2.524 1.9s-1.615 1.104-1.86 1.109-0.895 0.361-1.445 0.791-1.363 0.786-1.806 0.791-1.473 0.366-2.288 0.803c-2.712 1.454-7.175 1.599-49.211 1.603-22.562 2e-3 -41.015 0.16-41.4 0.354-0.382 0.193-1.401 0.688-2.263 1.1-2.007 0.958-4.402 2.287-6.432 3.567-0.88 0.555-2.185 1.276-2.9 1.601-0.715 0.326-1.3 0.757-1.3 0.959 0 0.203-0.405 0.491-0.9 0.642-1.076 0.327-7.9 7.178-7.9 7.93 0 0.289-0.344 0.837-0.764 1.217-0.42 0.381-0.881 1.159-1.025 1.731-0.143 0.571-0.609 1.482-1.036 2.024-0.426 0.542-0.775 1.387-0.775 1.878s-0.331 1.321-0.736 1.846-0.93 1.854-1.166 2.954c-0.237 1.1-0.707 2.72-1.047 3.6-0.508 1.319-0.618 3.848-0.626 14.4l-0.01 12.8 1.119 1.651c2.442 3.602 2.768 3.749 8.324 3.749 3.687 0 4.942-0.127 4.943-0.5 8e-3 -7.937 0.278-13.474 0.681-13.959 0.266-0.319 0.599-1.382 0.74-2.361 0.142-0.979 0.604-2.273 1.027-2.876s0.876-1.629 1.006-2.28 0.576-1.49 0.991-1.866c0.415-0.375 0.754-0.885 0.754-1.133 0-0.669 1.48-2.495 4.4-5.428 3.655-3.672 5.795-5.074 12.613-8.262 4.576-2.14 18.864-2.124 22.31 0.024 0.483 0.3 1.403 0.668 2.045 0.818 0.643 0.15 1.612 0.621 2.154 1.048 0.542 0.426 1.206 0.775 1.475 0.775 1.963 0 12.203 10.15 12.203 12.095 0 0.21 0.348 0.87 0.773 1.468 0.426 0.597 0.904 1.615 1.064 2.261 0.159 0.647 0.522 1.536 0.806 1.976 1.112 1.721 2.29 10.504 1.804 13.446-0.246 1.489-0.447 3.168-0.447 3.731v1.023h23.176c12.747 0 23.269-0.15 23.382-0.333 0.114-0.183 0-1.963-0.251-3.955-1.37-10.851 4.963-24.27 14.293-30.283 3.515-2.266 3.978-2.515 6.74-3.62 12.486-4.995 28.684-1.229 37.26 8.663 1.584 1.827 3.4 4.222 3.4 4.484 0 0.114 0.45 0.872 1 1.682 0.55 0.811 1 1.786 1 2.169 0 0.382 0.258 0.91 0.574 1.172s0.688 1.049 0.827 1.749c0.138 0.699 0.617 2.494 1.063 3.987 0.908 3.036 0.976 13.203 0.096 14.324-0.242 0.309-0.671 1.684-0.954 3.057-0.282 1.372-0.759 2.699-1.06 2.949-0.3 0.249-0.546 0.728-0.546 1.065 0 1.028 1.516-1.009 1.817-2.443 0.147-0.697 0.623-2.34 1.057-3.65 1.081-3.258 0.957-15.008-0.174-16.606-0.385-0.544-0.706-1.534-0.712-2.2-7e-3 -0.666-0.456-1.931-0.998-2.811s-0.987-1.875-0.988-2.211-0.362-0.919-0.802-1.296-0.8-0.938-0.8-1.248c0-1.665-9.858-11.045-11.608-11.045-0.389 0-0.806-0.261-0.929-0.579-0.122-0.319-0.978-0.783-1.903-1.032-0.924-0.249-1.925-0.697-2.225-0.997-0.299-0.299-1.397-0.659-2.44-0.798-1.042-0.14-2.692-0.51-3.666-0.824-2.102-0.676-10.092-0.779-11.277-0.144-0.438 0.234-1.907 0.604-3.264 0.823-1.358 0.219-3.035 0.747-3.726 1.174s-1.612 0.777-2.047 0.777-1.117 0.36-1.515 0.8-0.902 0.8-1.121 0.8c-2.236 0-12.279 10.077-12.279 12.322 0 0.241-0.225 0.582-0.5 0.758-0.698 0.447-2.285 4.283-2.878 6.957-0.273 1.23-0.617 2.432-0.765 2.671-0.555 0.898-0.968 6.403-0.705 9.407 0.342 3.916 2.962 3.528-22.937 3.396l-21.586-0.111 0.119-5.233c0.093-4.077-0.021-5.567-0.514-6.748-0.349-0.834-0.636-1.99-0.638-2.568s-0.446-1.951-0.987-3.051-0.99-2.249-0.996-2.553c-0.031-1.356-3.918-7.035-6.815-9.956-2.254-2.272-6.234-5.291-6.976-5.291-0.163 0-0.753-0.36-1.313-0.8-0.559-0.44-1.308-0.806-1.663-0.813-0.355-6e-3 -1.546-0.455-2.646-0.996s-2.501-0.985-3.113-0.987-1.759-0.274-2.549-0.604c-1.913-0.799-9.53-0.822-11.63-0.035-0.829 0.311-2.395 0.672-3.479 0.802-1.084 0.131-2.254 0.489-2.6 0.798-0.346 0.308-1.375 0.759-2.288 1.002-0.912 0.243-1.762 0.71-1.887 1.037-0.126 0.328-0.585 0.596-1.021 0.596-0.435 0-1.277 0.45-1.871 1-0.593 0.55-1.196 1-1.338 1-0.143 0-1.648 1.395-3.345 3.1-4.331 4.352-4.679 4.736-4.679 5.164 0 0.209-0.45 0.991-1 1.736s-1 1.647-1 2.002c0 0.356-0.356 1.029-0.791 1.496s-0.91 1.592-1.055 2.499-0.599 2.307-1.009 3.11c-0.636 1.249-0.745 2.412-0.745 7.978v6.515h-4.597c-4.163 0-4.643-0.075-5.096-0.8-0.275-0.44-0.681-0.802-0.903-0.805s-0.899-1.038-1.505-2.3l-1.1-2.295v-10.486c1e-3 -7.942 0.138-10.902 0.565-12.2 0.31-0.943 0.776-3.019 1.036-4.614s0.618-2.9 0.796-2.9 0.538-0.891 0.799-1.979 0.819-2.376 1.24-2.861 0.765-1.112 0.765-1.393c0-1.125 4.735-7.535 6.759-9.152 0.54-0.431 1.427-1.196 1.97-1.7 0.543-0.503 1.232-0.915 1.529-0.915 0.298 0 0.542-0.189 0.542-0.42 0-0.232 0.675-0.702 1.5-1.045 0.825-0.344 1.59-0.764 1.7-0.935s0.83-0.605 1.6-0.966 2.3-1.191 3.4-1.845c1.1-0.655 2.417-1.37 2.926-1.59 0.597-0.257 15.783-0.399 42.713-0.399 35.902 0 41.985-0.083 43.197-0.589 0.776-0.324 2.345-0.708 3.487-0.852 1.843-0.233 5.399-1.531 7.077-2.584 0.33-0.207 1.03-0.562 1.556-0.787 0.525-0.226 1.515-0.854 2.2-1.396 0.684-0.542 1.662-1.302 2.173-1.688 0.797-0.604 2.619-2.393 6.056-5.946 0.448-0.463 0.815-0.986 0.815-1.162s0.45-0.91 1-1.632c0.55-0.721 1-1.478 1-1.683s0.337-0.802 0.748-1.327 0.883-1.584 1.049-2.354c0.165-0.77 0.659-2.107 1.097-2.972 0.675-1.334 0.804-2.446 0.851-7.326l0.055-5.754-1.734-1.574c-4.157-3.773-10.066-0.948-10.066 4.813 0 1.341-0.242 3.018-0.537 3.726s-0.761 2.223-1.035 3.367-0.752 2.291-1.063 2.549-0.565 0.703-0.565 0.989-0.45 1.055-1 1.709-1.004 1.343-1.009 1.531c-4e-3 0.188-0.658 0.882-1.453 1.542-0.794 0.66-1.73 1.515-2.08 1.9s-0.793 0.7-0.985 0.7-0.914 0.402-1.603 0.892c-1.364 0.972-4.342 2.148-6.87 2.715-1.791 0.401-65.523 0.537-65.919 0.14-0.247-0.246 1.964-2.547 2.447-2.547 0.134 0 0.61-0.363 1.058-0.807s2.074-1.794 3.614-3.001c1.54-1.206 3.085-2.463 3.434-2.793 0.348-0.329 0.834-0.599 1.08-0.599 0.245 0 0.59-0.242 0.766-0.537s1.31-1.193 2.52-1.994c1.21-0.802 2.485-1.731 2.834-2.064 0.348-0.333 0.798-0.605 1-0.605 0.201-1e-3 0.889-0.451 1.528-1 0.639-0.55 1.403-1 1.697-1s0.759-0.36 1.034-0.8 0.807-0.8 1.183-0.8c0.375 0 1.168-0.45 1.762-1 0.593-0.55 1.31-1 1.592-1s0.789-0.277 1.127-0.615 1.251-0.88 2.029-1.205 1.414-0.768 1.414-0.985 0.267-0.395 0.592-0.395c0.326 0 2.171-0.799 4.1-1.776 4.073-2.062 7.486-3.604 8.908-4.024 0.55-0.162 1.27-0.521 1.6-0.797s1.257-0.619 2.06-0.763 1.668-0.512 1.923-0.819 1.218-0.68 2.14-0.828 2.229-0.587 2.904-0.975c0.676-0.388 2.116-0.835 3.2-0.993 1.085-0.158 2.399-0.561 2.919-0.895 0.52-0.335 2.23-0.786 3.8-1.004 1.57-0.217 3.072-0.575 3.338-0.796s2.406-0.654 4.755-0.962c2.349-0.309 4.471-0.726 4.716-0.928 2.141-1.762 47.227-1.633 49.445 0.142 0.33 0.264 1.365 0.698 2.3 0.965s1.7 0.644 1.7 0.838 0.643 0.565 1.428 0.824 1.525 0.723 1.643 1.031 0.464 0.56 0.769 0.56c0.675 0 8.56 7.651 8.56 8.306 0 0.256 0.36 0.659 0.8 0.894s0.8 0.678 0.8 0.983c0 0.306 0.45 1.09 1 1.744s1 1.365 1 1.582c0 0.216 0.24 0.593 0.534 0.836 0.294 0.244 0.773 1.169 1.066 2.055s0.772 1.811 1.066 2.055c0.294 0.243 0.536 0.736 0.538 1.094s0.446 1.551 0.987 2.651 0.99 2.398 0.996 2.885c7e-3 0.487 0.351 1.747 0.765 2.8 0.413 1.053 0.884 3.07 1.047 4.481 0.162 1.412 0.49 3.122 0.729 3.8 0.285 0.811 0.512 10.209 0.662 27.434 0.226 25.934 0.238 26.221 1.119 28.315 0.49 1.163 0.891 2.476 0.891 2.918s0.45 1.649 1 2.682 1 2.078 1 2.321 0.36 0.857 0.8 1.364 0.8 1.152 0.8 1.433c0 0.28 0.225 0.748 0.5 1.038 0.275 0.291 1.287 1.564 2.249 2.829 0.961 1.265 1.894 2.3 2.073 2.3 0.178 0 0.438 0.36 0.578 0.8s0.517 0.8 0.84 0.8c0.322 0 0.684 0.257 0.804 0.571 0.255 0.665 4.479 4.008 6.684 5.29 0.866 0.504 1.399 0.758 4.472 2.133 6.198 2.773 18.968 3.939 23.6 2.155 0.88-0.34 2.5-0.807 3.6-1.04 1.1-0.232 2.27-0.644 2.6-0.915s1.261-0.705 2.068-0.964 1.684-0.732 1.949-1.05c0.265-0.319 0.684-0.583 0.932-0.587 0.481-8e-3 3.591-2.025 4.628-3.002 5.983-5.635 8.341-8.567 10.445-12.991 0.262-0.55 0.795-1.63 1.184-2.4 0.39-0.77 0.841-2.206 1.002-3.191s0.585-2.237 0.943-2.782c0.585-0.894 0.669-5.131 0.849-43.076 0.11-23.147 0.34-42.224 0.511-42.395s1.606-0.45 3.189-0.619c1.584-0.169 3.424-0.569 4.089-0.889 0.666-0.319 1.976-0.783 2.911-1.03 0.935-0.248 1.7-0.615 1.7-0.816s0.642-0.486 1.428-0.634c0.785-0.147 1.638-0.605 1.896-1.018 0.258-0.412 0.656-0.75 0.886-0.75 1.072 0 7.482-6.29 8.216-8.062 0.259-0.626 0.607-1.138 0.774-1.138s0.538-0.585 0.824-1.3c0.287-0.715 0.849-1.729 1.249-2.254s0.727-1.387 0.727-1.916 0.384-1.715 0.853-2.635c1.251-2.451 1.653-15.294 0.543-17.354l-0.722-1.341h-4.152c-4.666 0-13.972 1.402-14.953 2.253-0.348 0.301-0.907 0.547-1.244 0.547-2.085 0-11.525 6.829-11.525 8.337 0 0.208-0.273 0.482-0.606 0.61s-0.779 0.687-0.99 1.243c-0.211 0.555-0.54 1.01-0.73 1.01s-0.559 0.468-0.82 1.041c-0.49 1.076-1.654 0.762-1.654-0.447 0-0.28-0.27-0.612-0.6-0.739-0.33-0.126-0.6-0.551-0.6-0.942-1e-3 -0.392-0.451-1.236-1-1.875-0.55-0.639-1-1.361-1-1.604s-0.36-0.666-0.8-0.941-0.8-0.709-0.8-0.965c0-1.4-12.134-13.528-13.535-13.528-0.234 0-0.569-0.229-0.745-0.51-0.84-1.337-10.33-6.69-11.862-6.69-0.362 0-0.658-0.175-0.658-0.389s-1.035-0.685-2.3-1.048-2.507-0.825-2.76-1.027-1.603-0.546-3-0.763c-1.397-0.218-3.26-0.7-4.14-1.072-2.369-1-28.572-1.298-29.372-0.334m10.061 10.056c-1.001 0.701-1.322 7.681-0.486 10.58 0.222 0.768 0.684 3.014 1.028 4.99 0.345 1.977 0.817 3.824 1.05 4.105 0.233 0.28 0.581 1.35 0.772 2.376 0.192 1.026 0.604 2.149 0.917 2.496 0.312 0.346 0.699 1.17 0.86 1.83s0.625 1.629 1.031 2.154 0.742 1.155 0.746 1.4 0.547 1.256 1.206 2.246 1.421 2.133 1.693 2.541c3.341 5.006 7.596 9.162 14.894 14.544 1.593 1.175 8.883 4.786 10.4 5.152 0.66 0.159 1.56 0.512 2 0.783s1.7 0.62 2.8 0.775c1.1 0.154 2.542 0.507 3.206 0.783 2.862 1.192 9.794 1.102 9.794-0.128 0-0.473-2.555-3.05-8.973-9.05-2.824-2.64-7.557-7.185-10.518-10.1-2.96-2.915-5.539-5.3-5.73-5.3-0.192 0-0.539-0.708-0.772-1.573-1.332-4.949 3.074-8.548 6.688-5.464 2.238 1.91 5.449 4.913 10.825 10.124 15.143 14.677 15.431 14.932 16.019 14.192 0.772-0.973 0.327-6.882-0.722-9.583-0.449-1.158-0.817-2.603-0.817-3.211 0-0.609-0.246-1.462-0.546-1.896s-0.682-1.239-0.848-1.789c-2.05-6.79-10.73-18.016-17.806-23.028-1.21-0.857-2.26-1.696-2.333-1.865-0.074-0.169-0.375-0.307-0.67-0.307-0.294 0-1.044-0.427-1.666-0.948-0.622-0.522-1.701-1.073-2.398-1.225-0.696-0.152-1.359-0.518-1.473-0.814-0.113-0.296-0.803-0.669-1.533-0.829s-1.954-0.627-2.721-1.037c-0.767-0.411-1.723-0.747-2.126-0.747-0.402 0-1.575-0.34-2.606-0.756-4.278-1.725-19.311-2.734-21.185-1.421m16.511 1.39c4.378 0.98 6.934 1.73 8.254 2.423 0.8 0.42 1.827 0.764 2.283 0.764 0.455 0 1.491 0.45 2.301 1 0.811 0.55 1.809 1 2.218 1s0.744 0.172 0.744 0.381c0 0.21 0.622 0.676 1.382 1.037 0.759 0.361 1.592 0.909 1.849 1.219s0.686 0.563 0.955 0.563c1.196 0 10.934 9.58 13.214 13 0.88 1.32 1.694 2.49 1.808 2.6 0.115 0.11 0.428 0.65 0.697 1.2s0.658 1.27 0.865 1.6c0.807 1.288 2.83 5.894 2.83 6.443 0 0.318 0.246 0.934 0.546 1.368s0.761 2.036 1.024 3.56c0.263 1.525 0.644 3.081 0.846 3.458 0.586 1.095 0.981 5.305 0.481 5.125-0.464-0.167-3.248-2.742-10.729-9.918-15.754-15.113-15.388-14.786-16.697-14.913-3.305-0.32-6.21 0.969-6.258 2.777-7e-3 0.275-0.185 0.5-0.395 0.5s-0.499 0.623-0.642 1.385c-0.373 1.992 0.743 3.578 6.413 9.108 2.646 2.581 4.991 4.881 5.211 5.111 0.609 0.636 1.16 1.165 4.302 4.132 6.029 5.692 9.098 8.765 9.098 9.109 0 0.195 0.18 0.355 0.4 0.355s0.4 0.18 0.4 0.4c0 0.511-2.832 0.52-4.164 0.014-0.559-0.213-2.49-0.571-4.292-0.797-1.801-0.226-3.669-0.669-4.151-0.985s-1.577-0.703-2.435-0.861c-0.857-0.158-1.987-0.621-2.512-1.029s-1.184-0.742-1.466-0.742c-0.656 0-4.718-2.217-7.145-3.9-1.031-0.715-1.958-1.3-2.06-1.3-0.784 0-11.357-10.74-11.382-11.561-8e-3 -0.251-2.103-3.511-2.763-4.298-0.212-0.253-0.647-1.086-0.967-1.851-0.32-0.766-0.78-1.515-1.022-1.665-0.243-0.15-0.443-0.577-0.445-0.949s-0.446-1.576-0.987-2.676-0.99-2.308-0.996-2.685c-7e-3 -0.377-0.372-1.644-0.81-2.816-1.301-3.475-2.111-16.008-1.103-17.062 0.559-0.585 12.294-0.297 15.3 0.376m70.78 16.752c-1.657 0.138-3.26 0.524-3.886 0.935-0.586 0.385-1.297 0.703-1.58 0.707-0.564 8e-3 -3.183 1.707-5.04 3.27-1.459 1.227-4.874 5.669-4.874 6.338 0 0.27-0.391 1.124-0.87 1.898-1.098 1.777-1.584 7.554-0.684 8.124 3.997 2.531 19.554-7.61 19.554-12.748 0-0.286 0.335-1.189 0.743-2.005 1.453-2.9 1.204-7.425-0.374-6.819-0.093 0.035-1.438 0.17-2.989 0.3m3.29 1.735c-0.123 0.495-0.508 2.151-0.857 3.68s-0.87 3.059-1.158 3.4-0.755 1.205-1.038 1.92-0.678 1.3-0.878 1.3-0.482 0.315-0.627 0.7c-0.305 0.812-2.429 2.9-2.951 2.9-0.195 0-0.579 0.36-0.854 0.8s-0.701 0.8-0.947 0.8c-0.247 0-1.106 0.447-1.911 0.992-0.804 0.546-2.494 1.161-3.755 1.367-1.262 0.206-2.774 0.559-3.36 0.785-1.713 0.66-2.201-2.497-0.795-5.15 0.406-0.767 0.864-1.908 1.018-2.535 0.743-3.036 7.877-10.259 10.132-10.259 0.398 0 1.351-0.35 2.117-0.777 2.163-1.206 6.169-1.153 5.864 0.077m-257.27 108.36c-6.224 1.35-12.589 6.504-13.643 11.046-0.139 0.6-0.535 1.54-0.881 2.09-2.715 4.321 0.174 14.491 5.463 19.223 3.011 2.695 3.151 2.789 5.175 3.463 1.037 0.345 2.139 0.827 2.447 1.071 2.048 1.617 10.517 0.288 15.189-2.385 7.567-4.328 11.43-18.139 6.867-24.548-0.449-0.631-0.817-1.329-0.817-1.551 0-1.955-8.122-7.713-11.6-8.223-0.99-0.145-2.52-0.402-3.4-0.572-1.078-0.207-2.645-0.081-4.8 0.386m112.4 6e-3c-7.375 1.474-12.563 6.756-14.582 14.845l-0.877 3.514 0.875 3.886c0.482 2.137 1.104 4.155 1.382 4.485 0.279 0.33 0.617 0.961 0.751 1.402 0.656 2.166 6.174 6.795 9.3 7.802 0.853 0.275 1.804 0.702 2.113 0.948 0.339 0.27 2.337 0.448 5.039 0.448 2.703 0 4.699-0.177 5.038-0.448 0.308-0.246 1.259-0.673 2.112-0.948 3.919-1.263 9.288-6.533 10.101-9.914 0.144-0.6 0.616-1.796 1.048-2.66 0.992-1.978 0.883-8.576-0.169-10.23-0.35-0.55-0.749-1.489-0.888-2.086-1.64-7.08-12.593-12.774-21.243-11.044m-100.91 1.877c2.992 1.399 7.547 5.626 8.257 7.664 0.256 0.735 0.773 1.677 1.149 2.092 1.173 1.295 1.021 12.056-0.193 13.759-0.495 0.694-0.9 1.521-0.9 1.839 0 1.001-4.273 5.584-6.1 6.543-0.605 0.317-1.1 0.744-1.1 0.948 0 0.205-0.675 0.494-1.5 0.644s-2.194 0.621-3.041 1.047c-2.635 1.325-8.726 0.593-12.659-1.521-0.55-0.296-1.441-0.768-1.98-1.05-1.266-0.661-4.471-3.866-5.132-5.132-0.282-0.539-0.755-1.43-1.05-1.98-2.188-4.068-2.846-9.838-1.438-12.6 0.44-0.863 0.8-1.917 0.8-2.343 0-1.898 6.663-9.457 8.337-9.457 0.33 0 0.912-0.282 1.294-0.628 1.98-1.792 11.277-1.685 15.256 0.175m109.36-1.109c1.383 0.241 2.725 0.691 2.982 1 0.256 0.309 0.729 0.562 1.05 0.562 1.156 0 6.237 4.623 6.748 6.139 0.137 0.407 0.591 1.082 1.009 1.5 0.419 0.419 0.761 1.114 0.761 1.546s0.36 1.699 0.8 2.815c1.048 2.658 1.051 6.159 9e-3 8.456-0.435 0.959-0.795 2.121-0.8 2.583-5e-3 0.461-0.364 1.248-0.797 1.747-0.434 0.5-0.897 1.253-1.031 1.673-0.301 0.95-3.678 4.362-5.001 5.053-0.539 0.282-1.43 0.754-1.98 1.05-3.639 1.956-10.251 2.878-12.074 1.684-0.515-0.338-1.879-0.816-3.031-1.063s-2.095-0.61-2.095-0.806-0.496-0.613-1.103-0.927c-1.517-0.784-5.235-4.564-5.939-6.039-0.319-0.666-0.83-1.643-1.136-2.172-1.2-2.072-1.094-13.653 0.132-14.411 0.228-0.141 0.7-0.938 1.048-1.771 0.719-1.721 5.336-6.462 6.697-6.877 0.496-0.151 1.181-0.52 1.524-0.82 1.339-1.171 7.939-1.669 12.227-0.922m25.038 33.617c-3.354 6.579-14.702 15.945-19.318 15.945-0.446 0-1.386 0.308-2.09 0.684-2.152 1.151-12.545 1.254-15.666 0.156-1.313-0.462-2.71-0.84-3.106-0.84-2.126 0-11.007-5.644-13.504-8.582-0.552-0.65-1.409-1.64-1.905-2.2-0.495-0.56-1.459-1.693-2.141-2.518l-1.241-1.5-26.858 0.013c-20.499 9e-3 -27.003 0.128-27.465 0.5-0.334 0.268-1.215 1.297-1.959 2.287-1.87 2.491-7.13 7.52-8.829 8.444-0.773 0.42-1.676 0.913-2.006 1.095-1.862 1.025-5.235 2.431-6.8 2.834-0.99 0.255-2.43 0.631-3.2 0.836-2.753 0.732-11.372 0.474-13.696-0.409-1.157-0.44-2.554-0.785-3.104-0.768-0.563 0.017-0.738 0.118-0.4 0.231 0.33 0.11 1.443 0.546 2.474 0.968 2.73 1.12 14.508 1.123 16.97 5e-3 0.904-0.411 2.388-0.873 3.298-1.026 0.91-0.154 1.765-0.459 1.9-0.678s0.991-0.752 1.902-1.183c3.208-1.522 4.352-2.219 4.722-2.881 0.205-0.367 0.572-0.668 0.814-0.668 0.484 0 6.32-5.965 6.32-6.46 0-0.169 0.493-0.765 1.096-1.324l1.096-1.016h26.782 26.782l1.122 1.075c0.617 0.591 1.122 1.208 1.122 1.371 0 0.285 2.366 2.934 4.695 5.257 0.608 0.606 1.42 1.203 1.805 1.327 0.385 0.123 0.7 0.39 0.7 0.594 0 0.358 1.165 1.048 4.683 2.773 0.926 0.454 1.782 0.985 1.903 1.18 0.12 0.194 0.978 0.482 1.907 0.639s2.135 0.577 2.679 0.935c1.66 1.089 14.96 1.182 17.358 0.121 0.982-0.434 2.345-0.913 3.028-1.063 1.055-0.231 4.189-1.711 6.817-3.218 2.82-1.617 8.825-7.447 8.825-8.568 0-0.232 0.15-0.423 0.333-0.423 0.492 0 2.955-3.937 2.784-4.45-0.081-0.242-0.364-0.015-0.629 0.505" fill="#c8e293"/>
<path d="m90.634 229.01c-3.208 0.538-3.598 0.679-8.234 2.977-5.187 2.571-13.2 9.754-13.2 11.834 0 0.248-0.339 0.758-0.754 1.133-0.415 0.376-0.861 1.215-0.991 1.866s-0.583 1.677-1.006 2.28-0.885 1.897-1.027 2.876c-0.141 0.979-0.474 2.042-0.74 2.361-0.735 0.885-0.871 14.204-0.151 14.802 0.449 0.372 0.507-0.585 0.351-5.732-0.164-5.39-0.096-6.373 0.536-7.695 0.399-0.834 0.806-2.476 0.905-3.649 0.112-1.309 0.395-2.214 0.735-2.345 0.304-0.116 0.749-0.989 0.988-1.94 0.239-0.95 0.687-1.824 0.995-1.942 0.307-0.118 0.559-0.466 0.559-0.772 0-0.515 1.253-2.315 3.204-4.602 0.438-0.514 0.796-1.099 0.796-1.3s0.204-0.366 0.454-0.366 0.855-0.405 1.344-0.9 1.32-1.221 1.846-1.614c0.526-0.392 1.656-1.247 2.511-1.9 0.855-0.652 1.776-1.186 2.046-1.186s0.949-0.36 1.508-0.8c0.56-0.44 1.418-0.8 1.907-0.8s1.541-0.405 2.337-0.9c1.381-0.859 1.831-0.9 9.847-0.9s8.466 0.041 9.847 0.9c0.796 0.495 1.908 0.9 2.472 0.9 0.563 0 1.301 0.277 1.641 0.617 0.339 0.339 1.189 0.816 1.888 1.06 0.7 0.244 1.56 0.691 1.912 0.993 0.352 0.303 1.751 1.441 3.109 2.529 1.357 1.088 3.285 3.018 4.282 4.289 0.998 1.272 2.065 2.6 2.372 2.952 0.306 0.352 0.756 1.212 1 1.912 0.244 0.699 0.721 1.549 1.06 1.888 0.34 0.34 0.617 1.066 0.617 1.615 0 1.093 0.668 2.582 1.36 3.03 0.289 0.188 0.489 3.123 0.582 8.539 0.152 8.87 0.446 9.777 1.225 3.776 0.524-4.042-0.474-12.256-1.725-14.2-0.284-0.44-0.646-1.329-0.805-1.976-0.16-0.646-0.638-1.664-1.064-2.261-0.425-0.598-0.773-1.258-0.773-1.468 0-1.945-10.24-12.095-12.203-12.095-0.269 0-0.933-0.349-1.475-0.775-0.542-0.427-1.511-0.898-2.154-1.048-0.642-0.15-1.562-0.518-2.045-0.818-2.491-1.553-11.882-2.154-17.889-1.145m112.71-0.024c-2.841 0.516-7.401 2.141-9.332 3.327-3.51 2.155-5.248 3.426-7.03 5.142-7.234 6.965-11.421 17.988-10.277 27.053 0.251 1.992 0.376 3.753 0.277 3.913s0.064 0.385 0.362 0.499c0.44 0.169 0.579-1.319 0.745-7.969 0.165-6.581 0.325-8.311 0.82-8.866 0.338-0.379 0.828-1.499 1.089-2.489s0.714-2.07 1.006-2.4 0.656-1.097 0.807-1.705c0.152-0.608 0.486-1.238 0.741-1.4 0.256-0.162 0.808-0.835 1.227-1.495 1.163-1.832 4.872-5.595 6.746-6.843 0.92-0.613 1.856-1.305 2.079-1.536 0.622-0.645 4.644-2.543 5.994-2.829 0.66-0.14 1.534-0.555 1.942-0.923 1.159-1.045 17.804-1.003 18.966 0.048 0.436 0.395 1.49 0.827 2.342 0.961 0.853 0.135 1.979 0.577 2.504 0.983 0.525 0.407 1.188 0.739 1.473 0.739 0.286 0 1.641 0.9 3.012 2s2.733 2 3.027 2c0.293 0 0.534 0.287 0.534 0.637 0 0.351 0.36 0.732 0.8 0.847s0.8 0.353 0.8 0.529c0 0.175 0.358 0.739 0.796 1.253 1.838 2.155 3.204 4.074 3.204 4.5 0 0.251 0.36 0.764 0.8 1.141s0.8 1.13 0.8 1.674c0 0.543 0.34 1.31 0.755 1.703 0.507 0.481 0.85 1.57 1.044 3.316 0.159 1.43 0.539 3.207 0.845 3.949 0.669 1.623 0.77 9.277 0.131 9.916-0.234 0.234-0.608 1.745-0.832 3.357-0.245 1.768-0.711 3.32-1.174 3.909-0.423 0.537-0.769 1.332-0.769 1.765 0 0.434-0.45 1.323-1 1.977s-1 1.535-1 1.958-0.27 0.769-0.6 0.769-0.6 0.264-0.6 0.587c0 0.713-5.897 6.613-6.609 6.613-0.278 0-0.607 0.264-0.731 0.587s-0.818 0.836-1.543 1.138c-0.724 0.303-1.564 0.849-1.866 1.213s-0.977 0.662-1.5 0.662-1.283 0.332-1.689 0.738c-0.458 0.458-1.58 0.824-2.964 0.967-1.225 0.126-2.718 0.551-3.318 0.945-1.542 1.01-9.807 1.008-11.937-3e-3 -0.794-0.377-2.388-0.794-3.543-0.927s-2.513-0.562-3.019-0.953c-0.505-0.391-1.45-0.828-2.1-0.971-0.649-0.143-1.181-0.423-1.181-0.622 0-0.2-0.585-0.608-1.3-0.907s-1.547-0.841-1.849-1.205-0.795-0.662-1.097-0.662c-0.301 0-0.772-0.36-1.047-0.8s-0.654-0.8-0.843-0.8c-0.429 0-2.664-2.365-2.664-2.82 0-0.184-0.333-0.57-0.74-0.857-0.408-0.288-1.04-1.103-1.405-1.811-0.672-1.305-1.948-2.286-2.393-1.84-0.225 0.224 0.775 1.589 3.037 4.146 0.496 0.56 1.353 1.55 1.905 2.2 2.497 2.938 11.378 8.582 13.504 8.582 0.396 0 1.793 0.378 3.106 0.84 3.121 1.098 13.514 0.995 15.666-0.156 0.704-0.376 1.644-0.684 2.09-0.684 2.067 0 9.215-4.239 12.633-7.493 2.028-1.931 5.397-5.828 5.397-6.245 0-0.124 0.45-0.89 1-1.7 0.55-0.811 1-1.786 1-2.169 0-0.382 0.246-0.899 0.546-1.148 0.301-0.25 0.778-1.577 1.06-2.949 0.283-1.373 0.712-2.748 0.954-3.057 0.88-1.121 0.812-11.288-0.096-14.324-0.446-1.493-0.925-3.288-1.063-3.987-0.139-0.7-0.511-1.487-0.827-1.749s-0.574-0.79-0.574-1.172c0-0.383-0.45-1.358-1-2.169-0.55-0.81-1-1.568-1-1.682 0-0.115-0.495-0.86-1.1-1.655-8.149-10.705-20.637-15.528-33.954-13.111m-109.9 13.216c-0.634 0.331-1.848 0.713-2.697 0.848-0.85 0.136-1.933 0.585-2.408 0.997-0.476 0.412-1.102 0.749-1.393 0.749-1.422 0-6.989 6.647-7.535 8.996-0.152 0.658-0.463 1.311-0.691 1.451-1.547 0.957-1.38 11.753 0.207 13.34 0.369 0.369 0.67 1.165 0.67 1.769 0 0.674 0.387 1.436 1 1.969 0.55 0.478 1 1.032 1 1.23 0 1.023 5.959 6.045 7.172 6.045 0.473 0 1.35 0.362 1.948 0.804 2.165 1.601 12.273 1.46 13.927-0.194 0.336-0.335 0.974-0.61 1.418-0.61 1.52 0 7.686-5.566 8.384-7.568 0.236-0.677 0.585-1.232 0.775-1.232s0.54-0.765 0.777-1.7c0.238-0.935 0.65-2.133 0.916-2.663 0.64-1.274 0.656-9.16 0.02-9.553-0.255-0.157-0.59-0.962-0.745-1.788-0.155-0.827-0.622-1.935-1.037-2.463-0.415-0.527-0.755-1.145-0.755-1.373 0-0.568-5.82-6.46-6.381-6.46-0.248 0-0.939-0.343-1.535-0.763-0.596-0.419-1.795-0.884-2.664-1.033-0.868-0.148-1.943-0.525-2.389-0.837-1.116-0.782-6.459-0.756-7.984 0.039m112.91-0.058c-0.573 0.299-1.882 0.67-2.909 0.824s-2.178 0.599-2.558 0.99c-0.381 0.39-0.962 0.832-1.292 0.981-1.999 0.903-6.4 5.44-6.4 6.598 0 0.184-0.36 0.661-0.8 1.059s-0.806 1.191-0.814 1.762c-7e-3 0.571-0.361 1.758-0.786 2.638-1.503 3.111-0.388 11.781 1.829 14.231 0.314 0.348 0.571 0.844 0.571 1.104 0 1.086 6.987 7.265 8.216 7.265 0.379 0 1.341 0.405 2.137 0.9 2.159 1.343 11.932 1.324 13.369-0.026 0.511-0.481 1.288-0.874 1.726-0.874 1.225 0 6.152-3.74 6.152-4.67 0-0.291 0.258-0.53 0.573-0.53s0.693-0.378 0.84-0.839c0.146-0.462 0.608-1.182 1.026-1.6 0.419-0.419 0.761-1.183 0.761-1.7 0-0.516 0.337-1.327 0.748-1.802 1.539-1.774 1.534-11.63-7e-3 -13.613-0.407-0.525-0.741-1.187-0.741-1.472 0-1.571-6.168-8.574-7.551-8.574-0.369 0-0.959-0.336-1.311-0.747-0.364-0.425-1.474-0.873-2.575-1.038-1.064-0.159-2.296-0.543-2.738-0.852-1.049-0.735-6.067-0.745-7.466-0.015m-104.36 1.302c3.478 0.51 11.6 6.268 11.6 8.223 0 0.222 0.368 0.92 0.817 1.551 4.563 6.409 0.7 20.22-6.867 24.548-4.672 2.673-13.141 4.002-15.189 2.385-0.308-0.244-1.41-0.726-2.447-1.071-2.024-0.674-2.164-0.768-5.175-3.463-5.289-4.732-8.178-14.902-5.463-19.223 0.346-0.55 0.742-1.49 0.881-2.09 1.387-5.98 12.14-12.645 18.443-11.432 0.88 0.17 2.41 0.427 3.4 0.572m113.11 0.105c4.758 0.902 11.389 6.686 12.332 10.759 0.139 0.597 0.538 1.536 0.888 2.086 1.052 1.654 1.161 8.252 0.169 10.23-0.432 0.864-0.904 2.06-1.048 2.66-0.813 3.381-6.182 8.651-10.101 9.914-0.853 0.275-1.804 0.702-2.112 0.948-0.339 0.271-2.335 0.448-5.038 0.448-2.702 0-4.7-0.178-5.039-0.448-0.309-0.246-1.26-0.673-2.113-0.948-3.126-1.007-8.644-5.636-9.3-7.802-0.134-0.441-0.472-1.072-0.751-1.402-0.278-0.33-0.9-2.348-1.382-4.485l-0.875-3.886 0.877-3.514c2.855-11.439 11.544-16.824 23.493-14.56m-36.683 29.445c0 0.22 0.258 0.85 0.572 1.4s0.572 0.82 0.572 0.6-0.258-0.85-0.572-1.4-0.572-0.82-0.572-0.6m-110.03 5.671c0 3.039 14.761 14.928 18.536 14.929 0.475 0 1.811 0.36 2.968 0.8 2.324 0.883 10.943 1.141 13.696 0.409 0.77-0.205 2.21-0.581 3.2-0.836 1.565-0.403 4.938-1.809 6.8-2.834 0.33-0.182 1.233-0.675 2.006-1.095 1.704-0.926 6.966-5.962 8.825-8.444 0.741-0.99 1.581-1.946 1.867-2.125 0.285-0.178 0.419-0.486 0.296-0.685-0.374-0.605-1.987 0.385-2.501 1.535-0.264 0.591-1.203 1.863-2.086 2.826-0.884 0.962-1.607 1.907-1.607 2.1 0 0.192-0.165 0.349-0.366 0.349s-0.786 0.358-1.3 0.796c-2.287 1.951-4.087 3.204-4.602 3.204-0.306 0-0.654 0.252-0.772 0.559-0.118 0.308-0.992 0.756-1.942 0.995-0.951 0.239-1.824 0.684-1.94 0.988-0.131 0.34-1.036 0.623-2.345 0.735-1.173 0.099-2.821 0.509-3.662 0.911-2.099 1.003-10.486 1.014-12.009 0.016-0.55-0.361-2.049-0.759-3.331-0.885-1.518-0.149-2.581-0.489-3.047-0.974-0.393-0.41-1.13-0.745-1.638-0.745-0.507 0-1.244-0.355-1.637-0.79-0.393-0.434-1.096-0.907-1.562-1.05-1.388-0.427-7.047-5.398-7.047-6.191 0-0.174-0.36-0.429-0.8-0.569s-0.8-0.502-0.8-0.804c0-0.303-0.315-0.789-0.7-1.079-0.385-0.291-0.893-0.876-1.129-1.299-0.454-0.816-1.371-1.316-1.371-0.747" fill="#7f8087"/>
</g>
</svg>
